<?xml version="1.0" encoding="utf-8" ?>
<svg baseProfile="tiny" height="100%" version="1.2" width="100%" xmlns="http://www.w3.org/2000/svg" xmlns:ev="http://www.w3.org/2001/xml-events" xmlns:xlink="http://www.w3.org/1999/xlink"><defs /><rect fill="#1A2B3C" height="90" width="90" x="5" y="5" /><line stroke="#FFFFFF" stroke-width="0.5" x1="10" x2="10" y1="5" y2="95" /><line stroke="#FFFFFF" stroke-width="0.5" x1="5" x2="95" y1="10" y2="10" /><line stroke="#FFFFFF" stroke-width="0.5" x1="20" x2="20" y1="5" y2="95" /><line stroke="#FFFFFF" stroke-width="0.5" x1="5" x2="95" y1="20" y2="20" /><line stroke="#FFFFFF" stroke-width="0.5" x1="30" x2="30" y1="5" y2="95" /><line stroke="#FFFFFF" stroke-width="0.5" x1="5" x2="95" y1="30" y2="30" /><line stroke="#FFFFFF" stroke-width="0.5" x1="40" x2="40" y1="5" y2="95" /><line stroke="#FFFFFF" stroke-width="0.5" x1="5" x2="95" y1="40" y2="40" /><line stroke="#FFFFFF" stroke-width="0.5" x1="50" x2="50" y1="5" y2="95" /><line stroke="#FFFFFF" stroke-width="0.5" x1="5" x2="95" y1="50" y2="50" /><line stroke="#FFFFFF" stroke-width="0.5" x1="60" x2="60" y1="5" y2="95" /><line stroke="#FFFFFF" stroke-width="0.5" x1="5" x2="95" y1="60" y2="60" /><line stroke="#FFFFFF" stroke-width="0.5" x1="70" x2="70" y1="5" y2="95" /><line stroke="#FFFFFF" stroke-width="0.5" x1="5" x2="95" y1="70" y2="70" /><line stroke="#FFFFFF" stroke-width="0.5" x1="80" x2="80" y1="5" y2="95" /><line stroke="#FFFFFF" stroke-width="0.5" x1="5" x2="95" y1="80" y2="80" /><line stroke="#FFFFFF" stroke-width="0.5" x1="90" x2="90" y1="5" y2="95" /><line stroke="#FFFFFF" stroke-width="0.5" x1="5" x2="95" y1="90" y2="90" /><polyline fill="none" points="10,50 20,60 30,40 40,70 50,50 60,35 70,65 80,50 90,55" stroke="#FF00FF" stroke-width="2" /><circle cx="20" cy="60" fill="#00FFFF" r="3" /><circle cx="30" cy="40" fill="#00FFFF" r="3" /><circle cx="40" cy="70" fill="#00FFFF" r="3" /><circle cx="60" cy="35" fill="#00FFFF" r="3" /><circle cx="70" cy="65" fill="#00FFFF" r="3" /><ellipse cx="50" cy="50" fill="none" rx="15" ry="10" stroke="#FFFFFF" stroke-width="2" /><circle cx="50" cy="50" fill="#FFFFFF" r="3" /></svg>