<?xml version="1.0" encoding="utf-8" ?>
<svg baseProfile="tiny" height="100%" version="1.2" width="100%" xmlns="http://www.w3.org/2000/svg" xmlns:ev="http://www.w3.org/2001/xml-events" xmlns:xlink="http://www.w3.org/1999/xlink"><defs /><circle cx="50" cy="50" fill="#2a2a2a" r="45" stroke="#ffcc00" stroke-width="2" /><circle cx="50" cy="50" fill="#ff6600" r="30" /><line stroke="#ffcc00" stroke-width="2" x1="80.0" x2="95.0" y1="50.0" y2="50.0" /><line stroke="#ffcc00" stroke-width="2" x1="78.9778" x2="93.4667" y1="57.7646" y2="61.6469" /><line stroke="#ffcc00" stroke-width="2" x1="75.9808" x2="88.9711" y1="65.0" y2="72.5" /><line stroke="#ffcc00" stroke-width="2" x1="71.2132" x2="81.8198" y1="71.2132" y2="81.8198" /><line stroke="#ffcc00" stroke-width="2" x1="65.0" x2="72.5" y1="75.9808" y2="88.9711" /><line stroke="#ffcc00" stroke-width="2" x1="57.7646" x2="61.6469" y1="78.9778" y2="93.4667" /><line stroke="#ffcc00" stroke-width="2" x1="50.0" x2="50.0" y1="80.0" y2="95.0" /><line stroke="#ffcc00" stroke-width="2" x1="42.2354" x2="38.3531" y1="78.9778" y2="93.4667" /><line stroke="#ffcc00" stroke-width="2" x1="35.0" x2="27.5" y1="75.9808" y2="88.9711" /><line stroke="#ffcc00" stroke-width="2" x1="28.7868" x2="18.1802" y1="71.2132" y2="81.8198" /><line stroke="#ffcc00" stroke-width="2" x1="24.0192" x2="11.0289" y1="65.0" y2="72.5" /><line stroke="#ffcc00" stroke-width="2" x1="21.0222" x2="6.5333" y1="57.7646" y2="61.6469" /><line stroke="#ffcc00" stroke-width="2" x1="20.0" x2="5.0" y1="50.0" y2="50.0" /><line stroke="#ffcc00" stroke-width="2" x1="21.0222" x2="6.5333" y1="42.2354" y2="38.3531" /><line stroke="#ffcc00" stroke-width="2" x1="24.0192" x2="11.0289" y1="35.0" y2="27.5" /><line stroke="#ffcc00" stroke-width="2" x1="28.7868" x2="18.1802" y1="28.7868" y2="18.1802" /><line stroke="#ffcc00" stroke-width="2" x1="35.0" x2="27.5" y1="24.0192" y2="11.0289" /><line stroke="#ffcc00" stroke-width="2" x1="42.2354" x2="38.3531" y1="21.0222" y2="6.5333" /><line stroke="#ffcc00" stroke-width="2" x1="50.0" x2="50.0" y1="20.0" y2="5.0" /><line stroke="#ffcc00" stroke-width="2" x1="57.7646" x2="61.6469" y1="21.0222" y2="6.5333" /><line stroke="#ffcc00" stroke-width="2" x1="65.0" x2="72.5" y1="24.0192" y2="11.0289" /><line stroke="#ffcc00" stroke-width="2" x1="71.2132" x2="81.8198" y1="28.7868" y2="18.1802" /><line stroke="#ffcc00" stroke-width="2" x1="75.9808" x2="88.9711" y1="35.0" y2="27.5" /><line stroke="#ffcc00" stroke-width="2" x1="78.9778" x2="93.4667" y1="42.2354" y2="38.3531" /></svg>