<?xml version="1.0" encoding="UTF-8" standalone="no"?>
<svg
   width="83.999672"
   height="26.053459"
   viewBox="0 0 83.999672 26.05346"
   fill="none"
   version="1.1"
   id="svg102"
   sodipodi:docname="logo_text.svg"
   inkscape:version="1.1.2 (0a00cf5339, 2022-02-04)"
   xmlns:inkscape="http://www.inkscape.org/namespaces/inkscape"
   xmlns:sodipodi="http://sodipodi.sourceforge.net/DTD/sodipodi-0.dtd"
   xmlns="http://www.w3.org/2000/svg"
   xmlns:svg="http://www.w3.org/2000/svg">
  <defs
     id="defs106" />
  <sodipodi:namedview
     id="namedview104"
     pagecolor="#000000"
     bordercolor="#000000"
     borderopacity="0.25"
     inkscape:showpageshadow="2"
     inkscape:pageopacity="0"
     inkscape:pagecheckerboard="0"
     inkscape:deskcolor="#d1d1d1"
     showgrid="false"
     inkscape:zoom="6.5658915"
     inkscape:cx="11.346517"
     inkscape:cy="-23.226092"
     inkscape:window-width="1920"
     inkscape:window-height="990"
     inkscape:window-x="0"
     inkscape:window-y="28"
     inkscape:window-maximized="1"
     inkscape:current-layer="svg102"
     inkscape:pageshadow="2"
     fit-margin-top="0"
     fit-margin-left="0"
     fit-margin-right="0"
     fit-margin-bottom="0" />
  <g
     id="g978"
     inkscape:label="LUNCO"
     transform="translate(-3,-77.834115)">
    <path
       d="M 4.96119,78.2833 H 3 v 25.1547 h 8.4788 v -1.832 H 4.96119 Z"
       fill="#ffffff"
       id="path18" />
    <path
       d="M 27.0766,78.2833 H 25.1518 V 101.606 H 16.3824 V 78.2833 h -1.9612 v 25.1547 h 12.6554 z"
       fill="#ffffff"
       id="path20" />
    <path
       d="m 35.2681,78.2833 h -3.2198 v 25.1547 h 1.9612 V 92.9091 l -0.109,-12.1822 8.8183,22.7111 h 3.2198 V 78.2833 h -1.9249 v 10.5291 l 0.1089,12.1826 z"
       fill="#ffffff"
       id="path22" />
    <path
       d="m 52.0559,78.2833 h -1.9611 v 25.1547 h 10.4023 v -1.832 h -8.4412 v -21.49 z"
       fill="#ffffff"
       id="path24" />
    <path
       d="m 52.0559,78.2833 v 1.8327 h 8.4412 v -1.8327 z"
       fill="#ffffff"
       id="path26" />
    <path
       fill-rule="evenodd"
       clip-rule="evenodd"
       d="m 73.9916,77.8367 c 7.1736,-0.1443 13.1153,5.7724 13.0066,13.0241 H 85.078 c 0.1449,-6.2415 -5.036,-11.2924 -11.0864,-11.1841 -6.1228,-0.1083 -11.195,4.9426 -11.0863,11.1841 -0.1087,6.2415 4.9635,11.2922 11.0863,11.1842 v 1.84 C 66.7819,103.993 60.804,98.1124 60.9489,90.8608 60.804,83.6091 66.7819,77.7285 73.9916,77.8367 Z"
       fill="#ffffff"
       id="path28" />
    <path
       d="m 73.9916,103.885 c 7.1736,0.144 13.1153,-5.7726 13.0066,-13.0242 H 85.078 c 0.1449,6.2415 -5.036,11.2922 -11.0864,11.1842 z"
       fill="#ffffff"
       id="path30" />
  </g>
</svg>
