<?xml version="1.0" encoding="UTF-8" standalone="no"?>
<svg
   width="68.560486"
   height="68.187981"
   viewBox="0 0 68.560486 68.187983"
   fill="none"
   version="1.1"
   id="svg102"
   sodipodi:docname="logo_icon.svg"
   inkscape:version="1.1.2 (0a00cf5339, 2022-02-04)"
   xmlns:inkscape="http://www.inkscape.org/namespaces/inkscape"
   xmlns:sodipodi="http://sodipodi.sourceforge.net/DTD/sodipodi-0.dtd"
   xmlns="http://www.w3.org/2000/svg"
   xmlns:svg="http://www.w3.org/2000/svg">
  <defs
     id="defs106" />
  <sodipodi:namedview
     id="namedview104"
     pagecolor="#000000"
     bordercolor="#000000"
     borderopacity="0.25"
     inkscape:showpageshadow="2"
     inkscape:pageopacity="0"
     inkscape:pagecheckerboard="0"
     inkscape:deskcolor="#d1d1d1"
     showgrid="false"
     inkscape:zoom="6.5658915"
     inkscape:cx="11.346517"
     inkscape:cy="51.858914"
     inkscape:window-width="1920"
     inkscape:window-height="990"
     inkscape:window-x="0"
     inkscape:window-y="28"
     inkscape:window-maximized="1"
     inkscape:current-layer="svg102"
     inkscape:pageshadow="2"
     fit-margin-top="0"
     fit-margin-left="0"
     fit-margin-right="0"
     fit-margin-bottom="0" />
  <g
     id="g989"
     transform="translate(-10.906278,-2.7285449)">
    <path
       d="m 78.3483,37.0089 c 0,18.3151 -14.8473,33.1624 -33.1624,33.1624 -18.3151,0 -33.1625,-14.8473 -33.1625,-33.1624 0,-18.3152 14.8474,-33.16249 33.1625,-33.16249 18.3151,0 33.1624,14.84729 33.1624,33.16249 z"
       fill="#000000"
       id="path84" />
    <path
       fill-rule="evenodd"
       clip-rule="evenodd"
       d="m 42.2376,32.0512 c 5.8422,-1.4946 9.4316,-7.3697 8.0952,-13.2501 l 0.9788,-0.2224 c 1.457,6.4106 -2.4562,12.8156 -8.8253,14.4449 l -4.3629,1.1161 c -3.8894,0.995 -7.2524,3.437 -9.4023,6.8276 l -0.8946,1.4109 -0.8477,-0.5375 0.8946,-1.4109 c 2.2868,-3.6066 5.864,-6.2042 10.0012,-7.2625 z"
       fill="#56f5ff"
       id="path86" />
    <path
       fill-rule="evenodd"
       clip-rule="evenodd"
       d="m 36.802,43.0327 c 1.1661,0 2.1114,-0.9453 2.1114,-2.1114 0,-1.1662 -0.9453,-2.1115 -2.1114,-2.1115 -1.1662,0 -2.1115,0.9453 -2.1115,2.1115 0,1.1661 0.9453,2.1114 2.1115,2.1114 z m 0,1.0558 c 1.7492,0 3.1672,-1.418 3.1672,-3.1672 0,-1.7492 -1.418,-3.1672 -3.1672,-3.1672 -1.7492,0 -3.1672,1.418 -3.1672,3.1672 0,1.7492 1.418,3.1672 3.1672,3.1672 z"
       fill="#56f5ff"
       id="path88" />
    <path
       fill-rule="evenodd"
       clip-rule="evenodd"
       d="m 46.1863,22.9705 c -0.6029,2.25 -2.0749,4.1684 -4.0922,5.333 -2.0173,1.1647 -4.4146,1.4803 -6.6646,0.8775 -2.25,-0.6029 -4.1683,-2.0749 -5.333,-4.0922 l 1.3039,-0.7528 c 0.9651,1.6714 2.5545,2.8911 4.4188,3.3906 1.8643,0.4996 3.8506,0.238 5.5221,-0.727 1.6715,-0.965 2.8911,-2.5545 3.3906,-4.4187 0.4992,-1.8631 0.3005,-3.3477 -0.6652,-5.0202 l 1.304,-0.7529 c 1.164,2.0162 1.4188,3.9116 0.8156,6.1627 z"
       fill="#56f5ff"
       id="path90" />
    <path
       fill-rule="evenodd"
       clip-rule="evenodd"
       d="m 41.1477,21.6208 c -0.2449,0.914 -0.8428,1.6933 -1.6623,2.1664 -0.8195,0.4731 -1.7933,0.6013 -2.7073,0.3564 -0.914,-0.2449 -1.6933,-0.8428 -2.1664,-1.6623 l 0.8693,-0.5019 c 0.34,0.5889 0.9,1.0187 1.5569,1.1947 0.6568,0.176 1.3567,0.0838 1.9456,-0.2562 0.5889,-0.34 1.0187,-0.9 1.1947,-1.5569 0.176,-0.6568 0.0838,-1.3567 -0.2562,-1.9456 l 0.8693,-0.5019 c 0.4731,0.8195 0.6013,1.7933 0.3564,2.7073 z"
       fill="#56f5ff"
       id="path92" />
    <path
       fill-rule="evenodd"
       clip-rule="evenodd"
       d="m 51.457,39.8882 c -5.04,5.7356 -12.4191,10.3102 -21.5478,9.268 l 0.2257,-1.973 c 8.2665,0.9437 15.0522,-3.17 19.8281,-8.605 2.3847,-2.7139 4.2422,-5.7315 5.5006,-8.5467 1.2662,-2.8326 1.8939,-5.388 1.8939,-7.1819 h 1.988 c 0,2.1779 -0.739,5.0216 -2.0666,7.9916 -1.3354,2.9872 -3.2986,6.1755 -5.8219,9.047 z"
       fill="#56f5ff"
       id="path94" />
    <path
       fill-rule="evenodd"
       clip-rule="evenodd"
       d="m 63.8171,30.5693 c -3.123,11.8014 -12.5422,20.7638 -24.289,23.1111 l -4.2094,0.8412 -0.1927,-1.0063 4.2093,-0.8411 C 50.7066,50.4019 59.8248,41.7259 62.8479,30.3018 Z"
       fill="#56f5ff"
       id="path96" />
    <path
       fill-rule="evenodd"
       clip-rule="evenodd"
       d="M 45.2822,2.73537 C 64.1422,2.35662 79.8429,17.7905 79.4599,36.8225 H 77.258 C 77.6409,19.0215 62.7062,4.53441 45.1865,4.81848 27.6668,4.43973 12.9235,19.1161 13.2107,36.8225 12.9235,54.5289 27.6668,69.2053 45.1865,68.8266 v 2.0831 C 26.3265,71.2884 10.5301,55.8545 10.9131,36.8225 10.6259,17.7905 26.3265,2.35662 45.2822,2.73537 Z"
       fill="#56f5ff"
       id="path98" />
    <path
       d="M 66.423,36.8225 C 66.5955,25.5179 57.1631,16.2942 45.775,16.5192 34.3295,16.3505 24.8395,25.5179 25.0695,36.8225 c -0.23,11.3046 9.26,20.4721 20.7055,20.3033 11.3881,0.225 20.8205,-8.9987 20.648,-20.3033 z m -38.2476,0 c -0.1726,-9.7298 7.8795,-17.6037 17.5996,-17.435 9.6051,-0.1687 17.8298,7.7052 17.5997,17.435 0.2301,9.7299 -7.9946,17.6037 -17.5997,17.435 -9.7201,0.1687 -17.7722,-7.7051 -17.5996,-17.435 z"
       fill="#56f5ff"
       id="path100" />
  </g>
</svg>
