<?xml version="1.0" encoding="UTF-8"?>
<!DOCTYPE svg PUBLIC "-//W3C//DTD SVG 1.1//EN" "http://www.w3.org/Graphics/SVG/1.1/DTD/svg11.dtd">
<!-- Creator: CorelDRAW X8 -->
<svg xmlns="http://www.w3.org/2000/svg" xml:space="preserve" width="200mm" height="37mm" version="1.1" style="shape-rendering:geometricPrecision; text-rendering:geometricPrecision; image-rendering:optimizeQuality; fill-rule:evenodd; clip-rule:evenodd"
viewBox="4650 8800 20500 3900"
 xmlns:xlink="http://www.w3.org/1999/xlink">
 <defs>
  <style type="text/css">
   <![CDATA[
    .fil1 {fill:#56F5FF}
   ]]>
  </style>
 </defs>
 
  <path class="fil1" d="M24478 9086c0,-158 128,-286 286,-286 158,0 286,128 286,286 0,158 -128,286 -286,286 -158,0 -286,-128 -286,-286l0 0zm-17235 3115l-890 0 -44 0 0 -1c-452,-10 -839,-176 -1161,-498 -332,-332 -498,-733 -498,-1205l0 -23 0 -21 0 0 0 -1653 285 0 0 1653 0 0 0 22 0 22c0,256 63,493 190,712 126,218 298,390 517,517 219,126 456,189 711,189l890 0 0 1 553 0 255 0 0 285 -808 0zm4196 -1701l0 -1700 285 0 0 1700c0,470 -166,872 -497,1203 -332,332 -733,498 -1203,498 -471,0 -872,-166 -1204,-498 -331,-331 -497,-733 -497,-1203l0 -1700 285 0 0 1700c0,255 63,492 189,710 126,218 298,390 517,516 218,127 454,190 710,190 255,0 491,-63 710,-190 218,-126 390,-298 516,-516 126,-218 189,-455 189,-710zm1633 -1203c331,-332 732,-497 1203,-497 470,0 871,165 1203,497 331,332 497,733 497,1203l0 1701 -285 0 0 -1701c0,-255 -63,-492 -189,-710 -126,-218 -298,-390 -516,-516 -218,-127 -455,-190 -710,-190 -255,0 -492,63 -710,190 -218,126 -391,298 -517,516 -126,218 -189,455 -189,710l0 1701 -285 0 0 -1701c0,-470 166,-871 498,-1203zm4251 2406c-332,-331 -497,-733 -497,-1203 0,-470 165,-871 497,-1203 332,-332 733,-497 1203,-497l1701 0 0 284 -1701 0c-255,0 -492,63 -710,190 -218,126 -390,298 -516,516 -127,218 -190,455 -190,710 0,255 63,492 190,710 126,218 298,390 516,516 218,127 455,190 710,190l1701 0 0 285 -1701 0c-470,0 -871,-166 -1203,-498zm4251 -2406c332,-332 733,-497 1203,-497 471,0 872,165 1203,497 332,332 498,733 498,1203 0,470 -166,872 -498,1203 -331,332 -732,498 -1203,498 -470,0 -871,-166 -1203,-498 -331,-331 -497,-733 -497,-1203 0,-470 166,-871 497,-1203zm493 2429c219,127 455,190 710,190 255,0 492,-63 710,-190 218,-126 391,-298 517,-516 126,-218 189,-455 189,-710 0,-255 -63,-492 -189,-710 -126,-218 -299,-390 -517,-516 -218,-127 -455,-190 -710,-190 -255,0 -491,63 -710,190 -218,126 -390,298 -516,516 -126,218 -189,455 -189,710 0,255 63,492 189,710 126,218 298,390 516,516z"/>

</svg>
