<?xml version="1.0" encoding="UTF-8" standalone="no"?>
<svg
   width="90"
   height="129"
   viewBox="0 0 90 129"
   fill="none"
   version="1.1"
   id="svg102"
   sodipodi:docname="logo_w-text.svg"
   inkscape:version="1.2.2 (732a01da63, 2022-12-09, custom)"
   xmlns:inkscape="http://www.inkscape.org/namespaces/inkscape"
   xmlns:sodipodi="http://sodipodi.sourceforge.net/DTD/sodipodi-0.dtd"
   xmlns="http://www.w3.org/2000/svg"
   xmlns:svg="http://www.w3.org/2000/svg">
  <defs
     id="defs106" />
  <sodipodi:namedview
     id="namedview104"
     pagecolor="#000000"
     bordercolor="#000000"
     borderopacity="0.25"
     inkscape:showpageshadow="2"
     inkscape:pageopacity="0"
     inkscape:pagecheckerboard="0"
     inkscape:deskcolor="#d1d1d1"
     showgrid="false"
     inkscape:zoom="6.5658915"
     inkscape:cx="23.454545"
     inkscape:cy="96.635773"
     inkscape:window-width="1920"
     inkscape:window-height="990"
     inkscape:window-x="0"
     inkscape:window-y="28"
     inkscape:window-maximized="1"
     inkscape:current-layer="svg102" />
  <g
     id="g978"
     inkscape:label="LUNCO">
    <path
       d="M4.96119 78.2833H3V103.438H11.4788V101.606H4.96119V78.2833Z"
       fill="white"
       id="path18" />
    <path
       d="M27.0766 78.2833H25.1518V101.606H16.3824V78.2833H14.4212V103.438H27.0766V78.2833Z"
       fill="white"
       id="path20" />
    <path
       d="M35.2681 78.2833H32.0483V103.438H34.0095V92.9091L33.9005 80.7269L42.7188 103.438H45.9386V78.2833H44.0137V88.8124L44.1226 100.995L35.2681 78.2833Z"
       fill="white"
       id="path22" />
    <path
       d="M52.0559 78.2833H50.0948V103.438H60.4971V101.606H52.0559V80.116V78.2833Z"
       fill="white"
       id="path24" />
    <path
       d="M52.0559 78.2833V80.116H60.4971V78.2833H52.0559Z"
       fill="white"
       id="path26" />
    <path
       fill-rule="evenodd"
       clip-rule="evenodd"
       d="M73.9916 77.8367C81.1652 77.6924 87.1069 83.6091 86.9982 90.8608H85.078C85.2229 84.6193 80.042 79.5684 73.9916 79.6767C67.8688 79.5684 62.7966 84.6193 62.9053 90.8608C62.7966 97.1023 67.8688 102.153 73.9916 102.045V103.885C66.7819 103.993 60.804 98.1124 60.9489 90.8608C60.804 83.6091 66.7819 77.7285 73.9916 77.8367Z"
       fill="white"
       id="path28" />
    <path
       d="M73.9916 103.885C81.1652 104.029 87.1069 98.1124 86.9982 90.8608H85.078C85.2229 97.1023 80.042 102.153 73.9916 102.045V103.885Z"
       fill="white"
       id="path30" />
  </g>
  <g
     id="g969"
     inkscape:label="Text">
    <path
       d="M13.632 112.807H12.8874C12.8588 112.648 12.8055 112.508 12.7275 112.387C12.6496 112.266 12.5541 112.164 12.4411 112.08C12.3282 111.995 12.2017 111.932 12.0617 111.889C11.9233 111.846 11.7761 111.824 11.6202 111.824C11.3386 111.824 11.0864 111.895 10.8637 112.037C10.6425 112.178 10.4675 112.386 10.3386 112.659C10.2113 112.933 10.1477 113.267 10.1477 113.662C10.1477 114.06 10.2113 114.395 10.3386 114.669C10.4675 114.943 10.6433 115.149 10.866 115.289C11.0888 115.429 11.3394 115.499 11.6178 115.499C11.7721 115.499 11.9185 115.479 12.0569 115.437C12.1969 115.394 12.3234 115.332 12.4364 115.249C12.5493 115.166 12.6448 115.065 12.7228 114.946C12.8023 114.825 12.8572 114.686 12.8874 114.53L13.632 114.533C13.5922 114.773 13.5151 114.994 13.4005 115.196C13.2876 115.397 13.142 115.57 12.9638 115.717C12.7872 115.861 12.5851 115.974 12.3576 116.053C12.1301 116.133 11.8819 116.172 11.613 116.172C11.1898 116.172 10.8127 116.072 10.4818 115.872C10.1509 115.67 9.88996 115.381 9.69903 115.005C9.5097 114.63 9.41504 114.182 9.41504 113.662C9.41504 113.14 9.5105 112.692 9.70142 112.318C9.89234 111.943 10.1533 111.655 10.4842 111.454C10.8151 111.252 11.1914 111.151 11.613 111.151C11.8724 111.151 12.1142 111.189 12.3385 111.263C12.5644 111.337 12.7673 111.445 12.9471 111.588C13.1269 111.73 13.2756 111.903 13.3934 112.108C13.5111 112.312 13.5907 112.545 13.632 112.807Z"
       fill="#FCFCFC"
       id="path32" />
    <path
       d="M18.424 113.662C18.424 114.184 18.3286 114.632 18.1376 115.008C17.9467 115.382 17.685 115.67 17.3525 115.872C17.0215 116.072 16.6453 116.172 16.2237 116.172C15.8004 116.172 15.4226 116.072 15.0901 115.872C14.7591 115.67 14.4982 115.381 14.3073 115.005C14.1164 114.63 14.0209 114.182 14.0209 113.662C14.0209 113.14 14.1164 112.692 14.3073 112.318C14.4982 111.943 14.7591 111.655 15.0901 111.454C15.4226 111.252 15.8004 111.151 16.2237 111.151C16.6453 111.151 17.0215 111.252 17.3525 111.454C17.685 111.655 17.9467 111.943 18.1376 112.318C18.3286 112.692 18.424 113.14 18.424 113.662ZM17.6938 113.662C17.6938 113.264 17.6293 112.929 17.5004 112.657C17.3732 112.383 17.1982 112.177 16.9754 112.037C16.7543 111.895 16.5037 111.824 16.2237 111.824C15.942 111.824 15.6907 111.895 15.4695 112.037C15.2484 112.177 15.0734 112.383 14.9445 112.657C14.8172 112.929 14.7536 113.264 14.7536 113.662C14.7536 114.06 14.8172 114.395 14.9445 114.669C15.0734 114.941 15.2484 115.148 15.4695 115.289C15.6907 115.429 15.942 115.499 16.2237 115.499C16.5037 115.499 16.7543 115.429 16.9754 115.289C17.1982 115.148 17.3732 114.941 17.5004 114.669C17.6293 114.395 17.6938 114.06 17.6938 113.662Z"
       fill="#FCFCFC"
       id="path34" />
    <path
       d="M19.0074 116.106V111.218H19.7448V115.471H21.9595V116.106H19.0074Z"
       fill="#FCFCFC"
       id="path36" />
    <path
       d="M22.4648 116.106V111.218H23.2022V115.471H25.4169V116.106H22.4648Z"
       fill="#FCFCFC"
       id="path38" />
    <path
       d="M26.5844 116.106H25.8016L27.5605 111.218H28.4124L30.1713 116.106H29.3885L28.0067 112.106H27.9685L26.5844 116.106ZM26.7156 114.192H29.2549V114.812H26.7156V114.192Z"
       fill="#FCFCFC"
       id="path40" />
    <path
       d="M30.5411 116.106V111.218H32.331C32.6778 111.218 32.965 111.275 33.1925 111.39C33.42 111.503 33.5903 111.656 33.7032 111.85C33.8162 112.043 33.8727 112.26 33.8727 112.502C33.8727 112.706 33.8353 112.877 33.7605 113.017C33.6857 113.156 33.5855 113.267 33.4598 113.352C33.3357 113.434 33.1989 113.495 33.0493 113.533V113.581C33.2116 113.589 33.3699 113.641 33.5242 113.738C33.6802 113.834 33.809 113.97 33.9109 114.146C34.0127 114.323 34.0636 114.538 34.0636 114.791C34.0636 115.04 34.0047 115.265 33.887 115.464C33.7709 115.661 33.5911 115.818 33.3476 115.934C33.1042 116.048 32.7932 116.106 32.4145 116.106H30.5411ZM31.2785 115.473H32.3429C32.6961 115.473 32.9491 115.405 33.1018 115.268C33.2546 115.131 33.3309 114.96 33.3309 114.755C33.3309 114.6 33.292 114.459 33.214 114.33C33.136 114.201 33.0247 114.099 32.8799 114.022C32.7367 113.946 32.5665 113.908 32.3692 113.908H31.2785V115.473ZM31.2785 113.332H32.2665C32.432 113.332 32.5808 113.301 32.7128 113.237C32.8465 113.173 32.9523 113.084 33.0302 112.97C33.1098 112.854 33.1496 112.717 33.1496 112.559C33.1496 112.357 33.0788 112.188 32.9372 112.051C32.7956 111.914 32.5784 111.846 32.2856 111.846H31.2785V113.332Z"
       fill="#FCFCFC"
       id="path42" />
    <path
       d="M38.8479 113.662C38.8479 114.184 38.7524 114.632 38.5615 115.008C38.3705 115.382 38.1088 115.67 37.7763 115.872C37.4454 116.072 37.0691 116.172 36.6475 116.172C36.2243 116.172 35.8464 116.072 35.5139 115.872C35.183 115.67 34.922 115.381 34.7311 115.005C34.5402 114.63 34.4447 114.182 34.4447 113.662C34.4447 113.14 34.5402 112.692 34.7311 112.318C34.922 111.943 35.183 111.655 35.5139 111.454C35.8464 111.252 36.2243 111.151 36.6475 111.151C37.0691 111.151 37.4454 111.252 37.7763 111.454C38.1088 111.655 38.3705 111.943 38.5615 112.318C38.7524 112.692 38.8479 113.14 38.8479 113.662ZM38.1176 113.662C38.1176 113.264 38.0531 112.929 37.9243 112.657C37.797 112.383 37.622 112.177 37.3992 112.037C37.1781 111.895 36.9275 111.824 36.6475 111.824C36.3659 111.824 36.1145 111.895 35.8933 112.037C35.6722 112.177 35.4972 112.383 35.3683 112.657C35.241 112.929 35.1774 113.264 35.1774 113.662C35.1774 114.06 35.241 114.395 35.3683 114.669C35.4972 114.941 35.6722 115.148 35.8933 115.289C36.1145 115.429 36.3659 115.499 36.6475 115.499C36.9275 115.499 37.1781 115.429 37.3992 115.289C37.622 115.148 37.797 114.941 37.9243 114.669C38.0531 114.395 38.1176 114.06 38.1176 113.662Z"
       fill="#FCFCFC"
       id="path44" />
    <path
       d="M39.4312 116.106V111.218H41.1734C41.5521 111.218 41.8663 111.283 42.1161 111.414C42.3674 111.544 42.5552 111.725 42.6793 111.955C42.8034 112.185 42.8654 112.449 42.8654 112.75C42.8654 113.049 42.8026 113.313 42.6769 113.54C42.5528 113.766 42.3651 113.942 42.1137 114.068C41.8639 114.193 41.5497 114.256 41.171 114.256H39.8513V113.621H41.1042C41.3428 113.621 41.5369 113.587 41.6865 113.519C41.8376 113.45 41.9482 113.351 42.0182 113.22C42.0882 113.09 42.1232 112.933 42.1232 112.75C42.1232 112.566 42.0874 112.406 42.0158 112.27C41.9458 112.135 41.8353 112.032 41.6841 111.96C41.5346 111.887 41.3381 111.85 41.0946 111.85H40.1687V116.106H39.4312ZM41.844 113.9L43.0516 116.106H42.2115L41.0278 113.9H41.844Z"
       fill="#FCFCFC"
       id="path46" />
    <path
       d="M43.8396 116.106H43.0568L44.8157 111.218H45.6677L47.4265 116.106H46.6438L45.262 112.106H45.2238L43.8396 116.106ZM43.9709 114.192H46.5101V114.812H43.9709V114.192Z"
       fill="#FCFCFC"
       id="path48" />
    <path
       d="M46.9778 111.853V111.218H50.7604V111.853H49.2354V116.106H48.5004V111.853H46.9778Z"
       fill="#FCFCFC"
       id="path50" />
    <path
       d="M51.9977 111.218V116.106H51.2603V111.218H51.9977Z"
       fill="#FCFCFC"
       id="path52" />
    <path
       d="M53.1628 111.218L54.5231 115.199H54.578L55.9383 111.218H56.7354L54.9765 116.106H54.1246L52.3657 111.218H53.1628Z"
       fill="#FCFCFC"
       id="path54" />
    <path
       d="M57.1052 116.106V111.218H60.1695V111.853H57.8426V113.342H60.0096V113.974H57.8426V115.471H60.1981V116.106H57.1052Z"
       fill="#FCFCFC"
       id="path56" />
    <path
       d="M64.9268 112.502C64.9013 112.276 64.7963 112.101 64.6117 111.977C64.4272 111.851 64.1949 111.788 63.9149 111.788C63.7144 111.788 63.541 111.82 63.3946 111.884C63.2482 111.946 63.1345 112.032 63.0534 112.142C62.9738 112.25 62.934 112.373 62.934 112.511C62.934 112.628 62.9611 112.728 63.0152 112.812C63.0709 112.897 63.1432 112.967 63.2323 113.025C63.323 113.08 63.4201 113.127 63.5235 113.165C63.6269 113.202 63.7263 113.232 63.8218 113.256L64.2991 113.38C64.455 113.418 64.6149 113.47 64.7788 113.535C64.9427 113.601 65.0946 113.686 65.2346 113.793C65.3746 113.9 65.4876 114.032 65.5735 114.189C65.661 114.347 65.7048 114.535 65.7048 114.755C65.7048 115.032 65.6332 115.277 65.49 115.492C65.3484 115.707 65.1424 115.876 64.8719 116.001C64.603 116.125 64.2776 116.187 63.8958 116.187C63.5299 116.187 63.2132 116.129 62.946 116.013C62.6787 115.896 62.4694 115.732 62.3183 115.519C62.1672 115.304 62.0836 115.049 62.0677 114.755H62.8075C62.8219 114.931 62.8791 115.079 62.9794 115.196C63.0812 115.312 63.2109 115.399 63.3684 115.456C63.5275 115.512 63.7017 115.54 63.891 115.54C64.0994 115.54 64.2848 115.507 64.4471 115.442C64.611 115.375 64.7398 115.283 64.8337 115.165C64.9276 115.046 64.9745 114.907 64.9745 114.748C64.9745 114.603 64.9331 114.484 64.8504 114.392C64.7693 114.3 64.6587 114.223 64.5187 114.163C64.3803 114.103 64.2235 114.049 64.0485 114.003L63.471 113.846C63.0796 113.739 62.7694 113.582 62.5402 113.375C62.3127 113.169 62.199 112.895 62.199 112.554C62.199 112.273 62.2753 112.027 62.4281 111.817C62.5808 111.607 62.7877 111.444 63.0486 111.328C63.3095 111.21 63.6038 111.151 63.9316 111.151C64.2625 111.151 64.5545 111.209 64.8074 111.325C65.062 111.442 65.2625 111.601 65.4088 111.805C65.5552 112.007 65.6316 112.239 65.638 112.502H64.9268Z"
       fill="#FCFCFC"
       id="path58" />
    <path
       d="M66.25 116.106V111.218H67.9921C68.3724 111.218 68.6874 111.287 68.9372 111.426C69.187 111.564 69.3739 111.753 69.498 111.994C69.6221 112.232 69.6842 112.501 69.6842 112.8C69.6842 113.101 69.6213 113.371 69.4956 113.612C69.3715 113.85 69.1838 114.04 68.9324 114.18C68.6826 114.318 68.3684 114.387 67.9897 114.387H66.7917V113.762H67.9229C68.1632 113.762 68.3581 113.721 68.5076 113.638C68.6572 113.554 68.767 113.439 68.837 113.294C68.907 113.149 68.942 112.985 68.942 112.8C68.942 112.616 68.907 112.452 68.837 112.309C68.767 112.165 68.6564 112.053 68.5052 111.972C68.3557 111.891 68.1584 111.85 67.9134 111.85H66.9874V116.106H66.25Z"
       fill="#FCFCFC"
       id="path60" />
    <path
       d="M70.1071 116.106H69.3243L71.0832 111.218H71.9351L73.694 116.106H72.9112L71.5294 112.106H71.4912L70.1071 116.106ZM70.2383 114.192H72.7776V114.812H70.2383V114.192Z"
       fill="#FCFCFC"
       id="path62" />
    <path
       d="M77.8936 112.807H77.149C77.1203 112.648 77.067 112.508 76.9891 112.387C76.9111 112.266 76.8157 112.164 76.7027 112.08C76.5897 111.995 76.4632 111.932 76.3232 111.889C76.1848 111.846 76.0376 111.824 75.8817 111.824C75.6001 111.824 75.3479 111.895 75.1252 112.037C74.9041 112.178 74.729 112.386 74.6002 112.659C74.4729 112.933 74.4092 113.267 74.4092 113.662C74.4092 114.06 74.4729 114.395 74.6002 114.669C74.729 114.943 74.9048 115.149 75.1276 115.289C75.3503 115.429 75.6009 115.499 75.8793 115.499C76.0337 115.499 76.18 115.479 76.3185 115.437C76.4585 115.394 76.585 115.332 76.6979 115.249C76.8109 115.166 76.9063 115.065 76.9843 114.946C77.0638 114.825 77.1187 114.686 77.149 114.53L77.8936 114.533C77.8538 114.773 77.7766 114.994 77.6621 115.196C77.5491 115.397 77.4035 115.57 77.2253 115.717C77.0487 115.861 76.8467 115.974 76.6192 116.053C76.3916 116.133 76.1434 116.172 75.8746 116.172C75.4514 116.172 75.0743 116.072 74.7434 115.872C74.4124 115.67 74.1515 115.381 73.9606 115.005C73.7713 114.63 73.6766 114.182 73.6766 113.662C73.6766 113.14 73.772 112.692 73.963 112.318C74.1539 111.943 74.4148 111.655 74.7457 111.454C75.0767 111.252 75.4529 111.151 75.8746 111.151C76.1339 111.151 76.3757 111.189 76.6001 111.263C76.826 111.337 77.0288 111.445 77.2086 111.588C77.3884 111.73 77.5372 111.903 77.6549 112.108C77.7726 112.312 77.8522 112.545 77.8936 112.807Z"
       fill="#FCFCFC"
       id="path64" />
    <path
       d="M78.44 116.106V111.218H81.5042V111.853H79.1774V113.342H81.3444V113.974H79.1774V115.471H81.5329V116.106H78.44Z"
       fill="#FCFCFC"
       id="path66" />
    <path
       d="M30.7997 120.112H31.6946L33.2506 123.911H33.3079L34.8639 120.112H35.7589V125H35.0572V121.463H35.0119L33.5704 124.993H32.9881L31.5467 121.46H31.5013V125H30.7997V120.112Z"
       fill="#FCFCFC"
       id="path68" />
    <path
       d="M37.2324 120.112V125H36.495V120.112H37.2324Z"
       fill="#FCFCFC"
       id="path70" />
    <path
       d="M40.6361 121.396C40.6106 121.17 40.5056 120.995 40.3211 120.871C40.1365 120.745 39.9042 120.682 39.6242 120.682C39.4237 120.682 39.2503 120.714 39.1039 120.778C38.9576 120.84 38.8438 120.926 38.7627 121.036C38.6831 121.144 38.6433 121.267 38.6433 121.406C38.6433 121.522 38.6704 121.622 38.7245 121.706C38.7802 121.791 38.8525 121.861 38.9416 121.919C39.0323 121.974 39.1294 122.021 39.2328 122.059C39.3362 122.096 39.4357 122.126 39.5311 122.15L40.0084 122.274C40.1643 122.312 40.3242 122.364 40.4881 122.429C40.652 122.495 40.8039 122.581 40.9439 122.687C41.0839 122.794 41.1969 122.926 41.2828 123.083C41.3703 123.241 41.4141 123.429 41.4141 123.649C41.4141 123.926 41.3425 124.172 41.1993 124.386C41.0577 124.601 40.8517 124.771 40.5812 124.895C40.3123 125.019 39.9869 125.081 39.6051 125.081C39.2392 125.081 38.9226 125.023 38.6553 124.907C38.388 124.79 38.1788 124.626 38.0276 124.413C37.8765 124.198 37.7929 123.943 37.777 123.649H38.5168C38.5312 123.826 38.5884 123.973 38.6887 124.09C38.7905 124.207 38.9202 124.293 39.0777 124.351C39.2368 124.406 39.411 124.434 39.6003 124.434C39.8087 124.434 39.9941 124.401 40.1564 124.336C40.3203 124.269 40.4491 124.177 40.543 124.059C40.6369 123.94 40.6838 123.801 40.6838 123.642C40.6838 123.497 40.6424 123.378 40.5597 123.286C40.4786 123.194 40.368 123.118 40.228 123.057C40.0896 122.997 39.9328 122.943 39.7578 122.897L39.1803 122.74C38.7889 122.633 38.4787 122.476 38.2496 122.27C38.022 122.063 37.9083 121.789 37.9083 121.449C37.9083 121.167 37.9846 120.921 38.1374 120.711C38.2901 120.501 38.497 120.338 38.7579 120.222C39.0188 120.104 39.3131 120.045 39.6409 120.045C39.9718 120.045 40.2638 120.103 40.5167 120.219C40.7713 120.336 40.9718 120.496 41.1181 120.699C41.2645 120.901 41.3409 121.134 41.3473 121.396H40.6361Z"
       fill="#FCFCFC"
       id="path72" />
    <path
       d="M44.625 121.396C44.5996 121.17 44.4946 120.995 44.31 120.871C44.1254 120.745 43.8932 120.682 43.6131 120.682C43.4127 120.682 43.2392 120.714 43.0929 120.778C42.9465 120.84 42.8327 120.926 42.7516 121.036C42.672 121.144 42.6323 121.267 42.6323 121.406C42.6323 121.522 42.6593 121.622 42.7134 121.706C42.7691 121.791 42.8415 121.861 42.9306 121.919C43.0213 121.974 43.1183 122.021 43.2217 122.059C43.3252 122.096 43.4246 122.126 43.5201 122.15L43.9974 122.274C44.1533 122.312 44.3132 122.364 44.4771 122.429C44.6409 122.495 44.7929 122.581 44.9329 122.687C45.0729 122.794 45.1858 122.926 45.2718 123.083C45.3593 123.241 45.403 123.429 45.403 123.649C45.403 123.926 45.3314 124.172 45.1882 124.386C45.0466 124.601 44.8406 124.771 44.5701 124.895C44.3012 125.019 43.9759 125.081 43.594 125.081C43.2281 125.081 42.9115 125.023 42.6442 124.907C42.3769 124.79 42.1677 124.626 42.0165 124.413C41.8654 124.198 41.7819 123.943 41.766 123.649H42.5058C42.5201 123.826 42.5774 123.973 42.6776 124.09C42.7794 124.207 42.9091 124.293 43.0666 124.351C43.2257 124.406 43.3999 124.434 43.5893 124.434C43.7977 124.434 43.983 124.401 44.1453 124.336C44.3092 124.269 44.4381 124.177 44.5319 124.059C44.6258 123.94 44.6727 123.801 44.6727 123.642C44.6727 123.497 44.6314 123.378 44.5486 123.286C44.4675 123.194 44.3569 123.118 44.2169 123.057C44.0785 122.997 43.9218 122.943 43.7468 122.897L43.1692 122.74C42.7778 122.633 42.4676 122.476 42.2385 122.27C42.011 122.063 41.8972 121.789 41.8972 121.449C41.8972 121.167 41.9736 120.921 42.1263 120.711C42.2791 120.501 42.4859 120.338 42.7468 120.222C43.0078 120.104 43.3021 120.045 43.6298 120.045C43.9608 120.045 44.2527 120.103 44.5057 120.219C44.7603 120.336 44.9607 120.496 45.1071 120.699C45.2535 120.901 45.3298 121.134 45.3362 121.396H44.625Z"
       fill="#FCFCFC"
       id="path74" />
    <path
       d="M46.6857 120.112V125H45.9482V120.112H46.6857Z"
       fill="#FCFCFC"
       id="path76" />
    <path
       d="M51.6692 122.556C51.6692 123.078 51.5737 123.526 51.3828 123.902C51.1919 124.276 50.9302 124.564 50.5976 124.766C50.2667 124.966 49.8904 125.066 49.4688 125.066C49.0456 125.066 48.6677 124.966 48.3352 124.766C48.0043 124.564 47.7434 124.275 47.5524 123.899C47.3615 123.524 47.2661 123.076 47.2661 122.556C47.2661 122.034 47.3615 121.586 47.5524 121.212C47.7434 120.837 48.0043 120.549 48.3352 120.348C48.6677 120.146 49.0456 120.045 49.4688 120.045C49.8904 120.045 50.2667 120.146 50.5976 120.348C50.9302 120.549 51.1919 120.837 51.3828 121.212C51.5737 121.586 51.6692 122.034 51.6692 122.556ZM50.9389 122.556C50.9389 122.158 50.8745 121.823 50.7456 121.551C50.6183 121.278 50.4433 121.071 50.2206 120.931C49.9994 120.789 49.7488 120.718 49.4688 120.718C49.1872 120.718 48.9358 120.789 48.7147 120.931C48.4935 121.071 48.3185 121.278 48.1896 121.551C48.0624 121.823 47.9987 122.158 47.9987 122.556C47.9987 122.954 48.0624 123.289 48.1896 123.563C48.3185 123.835 48.4935 124.042 48.7147 124.183C48.9358 124.323 49.1872 124.394 49.4688 124.394C49.7488 124.394 49.9994 124.323 50.2206 124.183C50.4433 124.042 50.6183 123.835 50.7456 123.563C50.8745 123.289 50.9389 122.954 50.9389 122.556Z"
       fill="#FCFCFC"
       id="path78" />
    <path
       d="M56.1975 120.112V125H55.5197L53.0353 121.415H52.99V125H52.2526V120.112H52.9351L55.4219 123.701H55.4672V120.112H56.1975Z"
       fill="#FCFCFC"
       id="path80" />
    <path
       d="M59.6029 121.396C59.5775 121.17 59.4725 120.995 59.2879 120.871C59.1033 120.745 58.8711 120.682 58.591 120.682C58.3906 120.682 58.2172 120.714 58.0708 120.778C57.9244 120.84 57.8106 120.926 57.7295 121.036C57.65 121.144 57.6102 121.267 57.6102 121.406C57.6102 121.522 57.6372 121.622 57.6913 121.706C57.747 121.791 57.8194 121.861 57.9085 121.919C57.9992 121.974 58.0962 122.021 58.1997 122.059C58.3031 122.096 58.4025 122.126 58.498 122.15L58.9753 122.274C59.1312 122.312 59.2911 122.364 59.455 122.429C59.6188 122.495 59.7708 122.581 59.9108 122.687C60.0508 122.794 60.1638 122.926 60.2497 123.083C60.3372 123.241 60.3809 123.429 60.3809 123.649C60.3809 123.926 60.3093 124.172 60.1661 124.386C60.0245 124.601 59.8185 124.771 59.548 124.895C59.2792 125.019 58.9538 125.081 58.5719 125.081C58.206 125.081 57.8894 125.023 57.6221 124.907C57.3548 124.79 57.1456 124.626 56.9945 124.413C56.8433 124.198 56.7598 123.943 56.7439 123.649H57.4837C57.498 123.826 57.5553 123.973 57.6555 124.09C57.7574 124.207 57.887 124.293 58.0445 124.351C58.2036 124.406 58.3778 124.434 58.5672 124.434C58.7756 124.434 58.961 124.401 59.1232 124.336C59.2871 124.269 59.416 124.177 59.5099 124.059C59.6037 123.94 59.6507 123.801 59.6507 123.642C59.6507 123.497 59.6093 123.378 59.5266 123.286C59.4454 123.194 59.3348 123.118 59.1948 123.057C59.0564 122.997 58.8997 122.943 58.7247 122.897L58.1471 122.74C57.7558 122.633 57.4455 122.476 57.2164 122.27C56.9889 122.063 56.8751 121.789 56.8751 121.449C56.8751 121.167 56.9515 120.921 57.1042 120.711C57.257 120.501 57.4638 120.338 57.7247 120.222C57.9857 120.104 58.28 120.045 58.6077 120.045C58.9387 120.045 59.2306 120.103 59.4836 120.219C59.7382 120.336 59.9386 120.496 60.085 120.699C60.2314 120.901 60.3077 121.134 60.3141 121.396H59.6029Z"
       fill="#FCFCFC"
       id="path82" />
  </g>
  <g
     id="g989">
    <path
       d="M78.3483 37.0089C78.3483 55.324 63.501 70.1713 45.1859 70.1713C26.8708 70.1713 12.0234 55.324 12.0234 37.0089C12.0234 18.6937 26.8708 3.84641 45.1859 3.84641C63.501 3.84641 78.3483 18.6937 78.3483 37.0089Z"
       fill="black"
       id="path84" />
    <path
       fill-rule="evenodd"
       clip-rule="evenodd"
       d="M42.2376 32.0512C48.0798 30.5566 51.6692 24.6815 50.3328 18.8011L51.3116 18.5787C52.7686 24.9893 48.8554 31.3943 42.4863 33.0236L38.1234 34.1397C34.234 35.1347 30.871 37.5767 28.7211 40.9673L27.8265 42.3782L26.9788 41.8407L27.8734 40.4298C30.1602 36.8232 33.7374 34.2256 37.8746 33.1673L42.2376 32.0512Z"
       fill="#56F5FF"
       id="path86" />
    <path
       fill-rule="evenodd"
       clip-rule="evenodd"
       d="M36.802 43.0327C37.9681 43.0327 38.9134 42.0874 38.9134 40.9213C38.9134 39.7551 37.9681 38.8098 36.802 38.8098C35.6358 38.8098 34.6905 39.7551 34.6905 40.9213C34.6905 42.0874 35.6358 43.0327 36.802 43.0327ZM36.802 44.0885C38.5512 44.0885 39.9692 42.6705 39.9692 40.9213C39.9692 39.1721 38.5512 37.7541 36.802 37.7541C35.0528 37.7541 33.6348 39.1721 33.6348 40.9213C33.6348 42.6705 35.0528 44.0885 36.802 44.0885Z"
       fill="#56F5FF"
       id="path88" />
    <path
       fill-rule="evenodd"
       clip-rule="evenodd"
       d="M46.1863 22.9705C45.5834 25.2205 44.1114 27.1389 42.0941 28.3035C40.0768 29.4682 37.6795 29.7838 35.4295 29.181C33.1795 28.5781 31.2612 27.1061 30.0965 25.0888L31.4004 24.336C32.3655 26.0074 33.9549 27.2271 35.8192 27.7266C37.6835 28.2262 39.6698 27.9646 41.3413 26.9996C43.0128 26.0346 44.2324 24.4451 44.7319 22.5809C45.2311 20.7178 45.0324 19.2332 44.0667 17.5607L45.3707 16.8078C46.5347 18.824 46.7895 20.7194 46.1863 22.9705Z"
       fill="#56F5FF"
       id="path90" />
    <path
       fill-rule="evenodd"
       clip-rule="evenodd"
       d="M41.1477 21.6208C40.9028 22.5348 40.3049 23.3141 39.4854 23.7872C38.6659 24.2603 37.6921 24.3885 36.7781 24.1436C35.8641 23.8987 35.0848 23.3008 34.6117 22.4813L35.481 21.9794C35.821 22.5683 36.381 22.9981 37.0379 23.1741C37.6947 23.3501 38.3946 23.2579 38.9835 22.9179C39.5724 22.5779 40.0022 22.0179 40.1782 21.361C40.3542 20.7042 40.262 20.0043 39.922 19.4154L40.7913 18.9135C41.2644 19.733 41.3926 20.7068 41.1477 21.6208Z"
       fill="#56F5FF"
       id="path92" />
    <path
       fill-rule="evenodd"
       clip-rule="evenodd"
       d="M51.457 39.8882C46.417 45.6238 39.0379 50.1984 29.9092 49.1562L30.1349 47.1832C38.4014 48.1269 45.1871 44.0132 49.963 38.5782C52.3477 35.8643 54.2052 32.8467 55.4636 30.0315C56.7298 27.1989 57.3575 24.6435 57.3575 22.8496H59.3455C59.3455 25.0275 58.6065 27.8712 57.2789 30.8412C55.9435 33.8284 53.9803 37.0167 51.457 39.8882Z"
       fill="#56F5FF"
       id="path94" />
    <path
       fill-rule="evenodd"
       clip-rule="evenodd"
       d="M63.8171 30.5693C60.6941 42.3707 51.2749 51.3331 39.5281 53.6804L35.3187 54.5216L35.126 53.5153L39.3353 52.6742C50.7066 50.4019 59.8248 41.7259 62.8479 30.3018L63.8171 30.5693Z"
       fill="#56F5FF"
       id="path96" />
    <path
       fill-rule="evenodd"
       clip-rule="evenodd"
       d="M45.2822 2.73537C64.1422 2.35662 79.8429 17.7905 79.4599 36.8225H77.258C77.6409 19.0215 62.7062 4.53441 45.1865 4.81848C27.6668 4.43973 12.9235 19.1161 13.2107 36.8225C12.9235 54.5289 27.6668 69.2053 45.1865 68.8266V70.9097C26.3265 71.2884 10.5301 55.8545 10.9131 36.8225C10.6259 17.7905 26.3265 2.35662 45.2822 2.73537Z"
       fill="#56F5FF"
       id="path98" />
    <path
       d="M66.423 36.8225C66.5955 25.5179 57.1631 16.2942 45.775 16.5192C34.3295 16.3505 24.8395 25.5179 25.0695 36.8225C24.8395 48.1271 34.3295 57.2946 45.775 57.1258C57.1631 57.3508 66.5955 48.1271 66.423 36.8225ZM28.1754 36.8225C28.0028 27.0927 36.0549 19.2188 45.775 19.3875C55.3801 19.2188 63.6048 27.0927 63.3747 36.8225C63.6048 46.5524 55.3801 54.4262 45.775 54.2575C36.0549 54.4262 28.0028 46.5524 28.1754 36.8225Z"
       fill="#56F5FF"
       id="path100" />
  </g>
</svg>
