<?xml version="1.0" encoding="UTF-8" standalone="no"?>
<svg
   width="90"
   height="129"
   viewBox="0 0 90 129"
   fill="none"
   version="1.1"
   id="svg102"
   sodipodi:docname="logo_with_motto.svg"
   inkscape:version="1.4 (1:1.4+202410161351+e7c3feb100)"
   xml:space="preserve"
   inkscape:export-filename="logo_with_motto.png"
   inkscape:export-xdpi="960"
   inkscape:export-ydpi="960"
   xmlns:inkscape="http://www.inkscape.org/namespaces/inkscape"
   xmlns:sodipodi="http://sodipodi.sourceforge.net/DTD/sodipodi-0.dtd"
   xmlns="http://www.w3.org/2000/svg"
   xmlns:svg="http://www.w3.org/2000/svg"><defs
     id="defs106"><style
       type="text/css"
       id="style1">
   <![CDATA[
    .fil1 {fill:#56F5FF}
   ]]>
  </style></defs><sodipodi:namedview
     id="namedview104"
     pagecolor="#000000"
     bordercolor="#000000"
     borderopacity="0.25"
     inkscape:showpageshadow="2"
     inkscape:pageopacity="0"
     inkscape:pagecheckerboard="0"
     inkscape:deskcolor="#d1d1d1"
     showgrid="false"
     inkscape:zoom="9.276899"
     inkscape:cx="58.748079"
     inkscape:cy="45.05816"
     inkscape:window-width="1920"
     inkscape:window-height="1042"
     inkscape:window-x="0"
     inkscape:window-y="1"
     inkscape:window-maximized="1"
     inkscape:current-layer="svg102" /><g
     id="g969"
     inkscape:label="Text"
     style="display:inline"><path
       d="m 13.632,112.807 h -0.7446 c -0.0286,-0.159 -0.0819,-0.299 -0.1599,-0.42 -0.0779,-0.121 -0.1734,-0.223 -0.2864,-0.307 -0.1129,-0.085 -0.2394,-0.148 -0.3794,-0.191 -0.1384,-0.043 -0.2856,-0.065 -0.4415,-0.065 -0.2816,0 -0.5338,0.071 -0.7565,0.213 -0.2212,0.141 -0.3962,0.349 -0.5251,0.622 -0.1273,0.274 -0.1909,0.608 -0.1909,1.003 0,0.398 0.0636,0.733 0.1909,1.007 0.1289,0.274 0.3047,0.48 0.5274,0.62 0.2228,0.14 0.4734,0.21 0.7518,0.21 0.1543,0 0.3007,-0.02 0.4391,-0.062 0.14,-0.043 0.2665,-0.105 0.3795,-0.188 0.1129,-0.083 0.2084,-0.184 0.2864,-0.303 0.0795,-0.121 0.1344,-0.26 0.1646,-0.416 l 0.7446,0.003 c -0.0398,0.24 -0.1169,0.461 -0.2315,0.663 -0.1129,0.201 -0.2585,0.374 -0.4367,0.521 -0.1766,0.144 -0.3787,0.257 -0.6062,0.336 -0.2275,0.08 -0.4757,0.119 -0.7446,0.119 -0.4232,0 -0.8003,-0.1 -1.1312,-0.3 -0.3309,-0.202 -0.59184,-0.491 -0.78277,-0.867 -0.18933,-0.375 -0.28399,-0.823 -0.28399,-1.343 0,-0.522 0.09546,-0.97 0.28638,-1.344 0.19092,-0.375 0.45188,-0.663 0.78278,-0.864 0.3309,-0.202 0.7072,-0.303 1.1288,-0.303 0.2594,0 0.5012,0.038 0.7255,0.112 0.2259,0.074 0.4288,0.182 0.6086,0.325 0.1798,0.142 0.3285,0.315 0.4463,0.52 0.1177,0.204 0.1973,0.437 0.2386,0.699 z"
       fill="#fcfcfc"
       id="path32" /><path
       d="m 18.424,113.662 c 0,0.522 -0.0954,0.97 -0.2864,1.346 -0.1909,0.374 -0.4526,0.662 -0.7851,0.864 -0.331,0.2 -0.7072,0.3 -1.1288,0.3 -0.4233,0 -0.8011,-0.1 -1.1336,-0.3 -0.331,-0.202 -0.5919,-0.491 -0.7828,-0.867 -0.1909,-0.375 -0.2864,-0.823 -0.2864,-1.343 0,-0.522 0.0955,-0.97 0.2864,-1.344 0.1909,-0.375 0.4518,-0.663 0.7828,-0.864 0.3325,-0.202 0.7103,-0.303 1.1336,-0.303 0.4216,0 0.7978,0.101 1.1288,0.303 0.3325,0.201 0.5942,0.489 0.7851,0.864 0.191,0.374 0.2864,0.822 0.2864,1.344 z m -0.7302,0 c 0,-0.398 -0.0645,-0.733 -0.1934,-1.005 -0.1272,-0.274 -0.3022,-0.48 -0.525,-0.62 -0.2211,-0.142 -0.4717,-0.213 -0.7517,-0.213 -0.2817,0 -0.533,0.071 -0.7542,0.213 -0.2211,0.14 -0.3961,0.346 -0.525,0.62 -0.1273,0.272 -0.1909,0.607 -0.1909,1.005 0,0.398 0.0636,0.733 0.1909,1.007 0.1289,0.272 0.3039,0.479 0.525,0.62 0.2212,0.14 0.4725,0.21 0.7542,0.21 0.28,0 0.5306,-0.07 0.7517,-0.21 0.2228,-0.141 0.3978,-0.348 0.525,-0.62 0.1289,-0.274 0.1934,-0.609 0.1934,-1.007 z"
       fill="#fcfcfc"
       id="path34" /><path
       d="m 19.0074,116.106 v -4.888 h 0.7374 v 4.253 h 2.2147 v 0.635 z"
       fill="#fcfcfc"
       id="path36" /><path
       d="m 22.4648,116.106 v -4.888 h 0.7374 v 4.253 h 2.2147 v 0.635 z"
       fill="#fcfcfc"
       id="path38" /><path
       d="m 26.5844,116.106 h -0.7828 l 1.7589,-4.888 h 0.8519 l 1.7589,4.888 h -0.7828 l -1.3818,-4 h -0.0382 z m 0.1312,-1.914 h 2.5393 v 0.62 h -2.5393 z"
       fill="#fcfcfc"
       id="path40" /><path
       d="m 30.5411,116.106 v -4.888 h 1.7899 c 0.3468,0 0.634,0.057 0.8615,0.172 0.2275,0.113 0.3978,0.266 0.5107,0.46 0.113,0.193 0.1695,0.41 0.1695,0.652 0,0.204 -0.0374,0.375 -0.1122,0.515 -0.0748,0.139 -0.175,0.25 -0.3007,0.335 -0.1241,0.082 -0.2609,0.143 -0.4105,0.181 v 0.048 c 0.1623,0.008 0.3206,0.06 0.4749,0.157 0.156,0.096 0.2848,0.232 0.3867,0.408 0.1018,0.177 0.1527,0.392 0.1527,0.645 0,0.249 -0.0589,0.474 -0.1766,0.673 -0.1161,0.197 -0.2959,0.354 -0.5394,0.47 -0.2434,0.114 -0.5544,0.172 -0.9331,0.172 z m 0.7374,-0.633 h 1.0644 c 0.3532,0 0.6062,-0.068 0.7589,-0.205 0.1528,-0.137 0.2291,-0.308 0.2291,-0.513 0,-0.155 -0.0389,-0.296 -0.1169,-0.425 -0.078,-0.129 -0.1893,-0.231 -0.3341,-0.308 -0.1432,-0.076 -0.3134,-0.114 -0.5107,-0.114 h -1.0907 z m 0,-2.141 h 0.988 c 0.1655,0 0.3143,-0.031 0.4463,-0.095 0.1337,-0.064 0.2395,-0.153 0.3174,-0.267 0.0796,-0.116 0.1194,-0.253 0.1194,-0.411 0,-0.202 -0.0708,-0.371 -0.2124,-0.508 -0.1416,-0.137 -0.3588,-0.205 -0.6516,-0.205 h -1.0071 z"
       fill="#fcfcfc"
       id="path42" /><path
       d="m 38.8479,113.662 c 0,0.522 -0.0955,0.97 -0.2864,1.346 -0.191,0.374 -0.4527,0.662 -0.7852,0.864 -0.3309,0.2 -0.7072,0.3 -1.1288,0.3 -0.4232,0 -0.8011,-0.1 -1.1336,-0.3 -0.3309,-0.202 -0.5919,-0.491 -0.7828,-0.867 -0.1909,-0.375 -0.2864,-0.823 -0.2864,-1.343 0,-0.522 0.0955,-0.97 0.2864,-1.344 0.1909,-0.375 0.4519,-0.663 0.7828,-0.864 0.3325,-0.202 0.7104,-0.303 1.1336,-0.303 0.4216,0 0.7979,0.101 1.1288,0.303 0.3325,0.201 0.5942,0.489 0.7852,0.864 0.1909,0.374 0.2864,0.822 0.2864,1.344 z m -0.7303,0 c 0,-0.398 -0.0645,-0.733 -0.1933,-1.005 -0.1273,-0.274 -0.3023,-0.48 -0.5251,-0.62 -0.2211,-0.142 -0.4717,-0.213 -0.7517,-0.213 -0.2816,0 -0.533,0.071 -0.7542,0.213 -0.2211,0.14 -0.3961,0.346 -0.525,0.62 -0.1273,0.272 -0.1909,0.607 -0.1909,1.005 0,0.398 0.0636,0.733 0.1909,1.007 0.1289,0.272 0.3039,0.479 0.525,0.62 0.2212,0.14 0.4726,0.21 0.7542,0.21 0.28,0 0.5306,-0.07 0.7517,-0.21 0.2228,-0.141 0.3978,-0.348 0.5251,-0.62 0.1288,-0.274 0.1933,-0.609 0.1933,-1.007 z"
       fill="#fcfcfc"
       id="path44" /><path
       d="m 39.4312,116.106 v -4.888 h 1.7422 c 0.3787,0 0.6929,0.065 0.9427,0.196 0.2513,0.13 0.4391,0.311 0.5632,0.541 0.1241,0.23 0.1861,0.494 0.1861,0.795 0,0.299 -0.0628,0.563 -0.1885,0.79 -0.1241,0.226 -0.3118,0.402 -0.5632,0.528 -0.2498,0.125 -0.564,0.188 -0.9427,0.188 h -1.3197 v -0.635 h 1.2529 c 0.2386,0 0.4327,-0.034 0.5823,-0.102 0.1511,-0.069 0.2617,-0.168 0.3317,-0.299 0.07,-0.13 0.105,-0.287 0.105,-0.47 0,-0.184 -0.0358,-0.344 -0.1074,-0.48 -0.07,-0.135 -0.1805,-0.238 -0.3317,-0.31 -0.1495,-0.073 -0.346,-0.11 -0.5895,-0.11 h -0.9259 v 4.256 z m 2.4128,-2.206 1.2076,2.206 H 42.2115 L 41.0278,113.9 Z"
       fill="#fcfcfc"
       id="path46" /><path
       d="m 43.8396,116.106 h -0.7828 l 1.7589,-4.888 h 0.852 l 1.7588,4.888 h -0.7827 l -1.3818,-4 h -0.0382 z m 0.1313,-1.914 h 2.5392 v 0.62 h -2.5392 z"
       fill="#fcfcfc"
       id="path48" /><path
       d="m 46.9778,111.853 v -0.635 h 3.7826 v 0.635 h -1.525 v 4.253 h -0.735 v -4.253 z"
       fill="#fcfcfc"
       id="path50" /><path
       d="m 51.9977,111.218 v 4.888 h -0.7374 v -4.888 z"
       fill="#fcfcfc"
       id="path52" /><path
       d="m 53.1628,111.218 1.3603,3.981 h 0.0549 l 1.3603,-3.981 h 0.7971 l -1.7589,4.888 h -0.8519 l -1.7589,-4.888 z"
       fill="#fcfcfc"
       id="path54" /><path
       d="m 57.1052,116.106 v -4.888 h 3.0643 v 0.635 h -2.3269 v 1.489 h 2.167 v 0.632 h -2.167 v 1.497 h 2.3555 v 0.635 z"
       fill="#fcfcfc"
       id="path56" /><path
       d="m 64.9268,112.502 c -0.0255,-0.226 -0.1305,-0.401 -0.3151,-0.525 -0.1845,-0.126 -0.4168,-0.189 -0.6968,-0.189 -0.2005,0 -0.3739,0.032 -0.5203,0.096 -0.1464,0.062 -0.2601,0.148 -0.3412,0.258 -0.0796,0.108 -0.1194,0.231 -0.1194,0.369 0,0.117 0.0271,0.217 0.0812,0.301 0.0557,0.085 0.128,0.155 0.2171,0.213 0.0907,0.055 0.1878,0.102 0.2912,0.14 0.1034,0.037 0.2028,0.067 0.2983,0.091 l 0.4773,0.124 c 0.1559,0.038 0.3158,0.09 0.4797,0.155 0.1639,0.066 0.3158,0.151 0.4558,0.258 0.14,0.107 0.253,0.239 0.3389,0.396 0.0875,0.158 0.1313,0.346 0.1313,0.566 0,0.277 -0.0716,0.522 -0.2148,0.737 -0.1416,0.215 -0.3476,0.384 -0.6181,0.509 -0.2689,0.124 -0.5943,0.186 -0.9761,0.186 -0.3659,0 -0.6826,-0.058 -0.9498,-0.174 -0.2673,-0.117 -0.4766,-0.281 -0.6277,-0.494 -0.1511,-0.215 -0.2347,-0.47 -0.2506,-0.764 h 0.7398 c 0.0144,0.176 0.0716,0.324 0.1719,0.441 0.1018,0.116 0.2315,0.203 0.389,0.26 0.1591,0.056 0.3333,0.084 0.5226,0.084 0.2084,0 0.3938,-0.033 0.5561,-0.098 0.1639,-0.067 0.2927,-0.159 0.3866,-0.277 0.0939,-0.119 0.1408,-0.258 0.1408,-0.417 0,-0.145 -0.0414,-0.264 -0.1241,-0.356 -0.0811,-0.092 -0.1917,-0.169 -0.3317,-0.229 -0.1384,-0.06 -0.2952,-0.114 -0.4702,-0.16 l -0.5775,-0.157 c -0.3914,-0.107 -0.7016,-0.264 -0.9308,-0.471 -0.2275,-0.206 -0.3412,-0.48 -0.3412,-0.821 0,-0.281 0.0763,-0.527 0.2291,-0.737 0.1527,-0.21 0.3596,-0.373 0.6205,-0.489 0.2609,-0.118 0.5552,-0.177 0.883,-0.177 0.3309,0 0.6229,0.058 0.8758,0.174 0.2546,0.117 0.4551,0.276 0.6014,0.48 0.1464,0.202 0.2228,0.434 0.2292,0.697 z"
       fill="#fcfcfc"
       id="path58" /><path
       d="m 66.25,116.106 v -4.888 h 1.7421 c 0.3803,0 0.6953,0.069 0.9451,0.208 0.2498,0.138 0.4367,0.327 0.5608,0.568 0.1241,0.238 0.1862,0.507 0.1862,0.806 0,0.301 -0.0629,0.571 -0.1886,0.812 -0.1241,0.238 -0.3118,0.428 -0.5632,0.568 -0.2498,0.138 -0.564,0.207 -0.9427,0.207 h -1.198 v -0.625 h 1.1312 c 0.2403,0 0.4352,-0.041 0.5847,-0.124 0.1496,-0.084 0.2594,-0.199 0.3294,-0.344 0.07,-0.145 0.105,-0.309 0.105,-0.494 0,-0.184 -0.035,-0.348 -0.105,-0.491 -0.07,-0.144 -0.1806,-0.256 -0.3318,-0.337 -0.1495,-0.081 -0.3468,-0.122 -0.5918,-0.122 h -0.926 v 4.256 z"
       fill="#fcfcfc"
       id="path60" /><path
       d="m 70.1071,116.106 h -0.7828 l 1.7589,-4.888 h 0.8519 l 1.7589,4.888 h -0.7828 l -1.3818,-4 h -0.0382 z m 0.1312,-1.914 h 2.5393 v 0.62 h -2.5393 z"
       fill="#fcfcfc"
       id="path62" /><path
       d="M 77.8936,112.807 H 77.149 c -0.0287,-0.159 -0.082,-0.299 -0.1599,-0.42 -0.078,-0.121 -0.1734,-0.223 -0.2864,-0.307 -0.113,-0.085 -0.2395,-0.148 -0.3795,-0.191 -0.1384,-0.043 -0.2856,-0.065 -0.4415,-0.065 -0.2816,0 -0.5338,0.071 -0.7565,0.213 -0.2211,0.141 -0.3962,0.349 -0.525,0.622 -0.1273,0.274 -0.191,0.608 -0.191,1.003 0,0.398 0.0637,0.733 0.191,1.007 0.1288,0.274 0.3046,0.48 0.5274,0.62 0.2227,0.14 0.4733,0.21 0.7517,0.21 0.1544,0 0.3007,-0.02 0.4392,-0.062 0.14,-0.043 0.2665,-0.105 0.3794,-0.188 0.113,-0.083 0.2084,-0.184 0.2864,-0.303 0.0795,-0.121 0.1344,-0.26 0.1647,-0.416 l 0.7446,0.003 c -0.0398,0.24 -0.117,0.461 -0.2315,0.663 -0.113,0.201 -0.2586,0.374 -0.4368,0.521 -0.1766,0.144 -0.3786,0.257 -0.6061,0.336 -0.2276,0.08 -0.4758,0.119 -0.7446,0.119 -0.4232,0 -0.8003,-0.1 -1.1312,-0.3 -0.331,-0.202 -0.5919,-0.491 -0.7828,-0.867 -0.1893,-0.375 -0.284,-0.823 -0.284,-1.343 0,-0.522 0.0954,-0.97 0.2864,-1.344 0.1909,-0.375 0.4518,-0.663 0.7827,-0.864 0.331,-0.202 0.7072,-0.303 1.1289,-0.303 0.2593,0 0.5011,0.038 0.7255,0.112 0.2259,0.074 0.4287,0.182 0.6085,0.325 0.1798,0.142 0.3286,0.315 0.4463,0.52 0.1177,0.204 0.1973,0.437 0.2387,0.699 z"
       fill="#fcfcfc"
       id="path64" /><path
       d="m 78.44,116.106 v -4.888 h 3.0642 v 0.635 h -2.3268 v 1.489 h 2.167 v 0.632 h -2.167 v 1.497 h 2.3555 v 0.635 z"
       fill="#fcfcfc"
       id="path66" /><path
       d="m 30.7997,120.112 h 0.8949 l 1.556,3.799 h 0.0573 l 1.556,-3.799 h 0.895 V 125 h -0.7017 v -3.537 h -0.0453 l -1.4415,3.53 H 32.9881 L 31.5467,121.46 H 31.5013 V 125 h -0.7016 z"
       fill="#fcfcfc"
       id="path68" /><path
       d="M 37.2324,120.112 V 125 H 36.495 v -4.888 z"
       fill="#fcfcfc"
       id="path70" /><path
       d="m 40.6361,121.396 c -0.0255,-0.226 -0.1305,-0.401 -0.315,-0.525 -0.1846,-0.126 -0.4169,-0.189 -0.6969,-0.189 -0.2005,0 -0.3739,0.032 -0.5203,0.096 -0.1463,0.062 -0.2601,0.148 -0.3412,0.258 -0.0796,0.108 -0.1194,0.231 -0.1194,0.37 0,0.116 0.0271,0.216 0.0812,0.3 0.0557,0.085 0.128,0.155 0.2171,0.213 0.0907,0.055 0.1878,0.102 0.2912,0.14 0.1034,0.037 0.2029,0.067 0.2983,0.091 l 0.4773,0.124 c 0.1559,0.038 0.3158,0.09 0.4797,0.155 0.1639,0.066 0.3158,0.152 0.4558,0.258 0.14,0.107 0.253,0.239 0.3389,0.396 0.0875,0.158 0.1313,0.346 0.1313,0.566 0,0.277 -0.0716,0.523 -0.2148,0.737 -0.1416,0.215 -0.3476,0.385 -0.6181,0.509 -0.2689,0.124 -0.5943,0.186 -0.9761,0.186 -0.3659,0 -0.6825,-0.058 -0.9498,-0.174 -0.2673,-0.117 -0.4765,-0.281 -0.6277,-0.494 -0.1511,-0.215 -0.2347,-0.47 -0.2506,-0.764 h 0.7398 c 0.0144,0.177 0.0716,0.324 0.1719,0.441 0.1018,0.117 0.2315,0.203 0.389,0.261 0.1591,0.055 0.3333,0.083 0.5226,0.083 0.2084,0 0.3938,-0.033 0.5561,-0.098 0.1639,-0.067 0.2927,-0.159 0.3866,-0.277 0.0939,-0.119 0.1408,-0.258 0.1408,-0.417 0,-0.145 -0.0414,-0.264 -0.1241,-0.356 -0.0811,-0.092 -0.1917,-0.168 -0.3317,-0.229 -0.1384,-0.06 -0.2952,-0.114 -0.4702,-0.16 l -0.5775,-0.157 c -0.3914,-0.107 -0.7016,-0.264 -0.9307,-0.47 -0.2276,-0.207 -0.3413,-0.481 -0.3413,-0.821 0,-0.282 0.0763,-0.528 0.2291,-0.738 0.1527,-0.21 0.3596,-0.373 0.6205,-0.489 0.2609,-0.118 0.5552,-0.177 0.883,-0.177 0.3309,0 0.6229,0.058 0.8758,0.174 0.2546,0.117 0.4551,0.277 0.6014,0.48 0.1464,0.202 0.2228,0.435 0.2292,0.697 z"
       fill="#fcfcfc"
       id="path72" /><path
       d="m 44.625,121.396 c -0.0254,-0.226 -0.1304,-0.401 -0.315,-0.525 -0.1846,-0.126 -0.4168,-0.189 -0.6969,-0.189 -0.2004,0 -0.3739,0.032 -0.5202,0.096 -0.1464,0.062 -0.2602,0.148 -0.3413,0.258 -0.0796,0.108 -0.1193,0.231 -0.1193,0.37 0,0.116 0.027,0.216 0.0811,0.3 0.0557,0.085 0.1281,0.155 0.2172,0.213 0.0907,0.055 0.1877,0.102 0.2911,0.14 0.1035,0.037 0.2029,0.067 0.2984,0.091 l 0.4773,0.124 c 0.1559,0.038 0.3158,0.09 0.4797,0.155 0.1638,0.066 0.3158,0.152 0.4558,0.258 0.14,0.107 0.2529,0.239 0.3389,0.396 0.0875,0.158 0.1312,0.346 0.1312,0.566 0,0.277 -0.0716,0.523 -0.2148,0.737 -0.1416,0.215 -0.3476,0.385 -0.6181,0.509 -0.2689,0.124 -0.5942,0.186 -0.9761,0.186 -0.3659,0 -0.6825,-0.058 -0.9498,-0.174 -0.2673,-0.117 -0.4765,-0.281 -0.6277,-0.494 -0.1511,-0.215 -0.2346,-0.47 -0.2505,-0.764 h 0.7398 c 0.0143,0.177 0.0716,0.324 0.1718,0.441 0.1018,0.117 0.2315,0.203 0.389,0.261 0.1591,0.055 0.3333,0.083 0.5227,0.083 0.2084,0 0.3937,-0.033 0.556,-0.098 0.1639,-0.067 0.2928,-0.159 0.3866,-0.277 0.0939,-0.119 0.1408,-0.258 0.1408,-0.417 0,-0.145 -0.0413,-0.264 -0.1241,-0.356 -0.0811,-0.092 -0.1917,-0.168 -0.3317,-0.229 -0.1384,-0.06 -0.2951,-0.114 -0.4701,-0.16 l -0.5776,-0.157 c -0.3914,-0.107 -0.7016,-0.264 -0.9307,-0.47 -0.2275,-0.207 -0.3413,-0.481 -0.3413,-0.821 0,-0.282 0.0764,-0.528 0.2291,-0.738 0.1528,-0.21 0.3596,-0.373 0.6205,-0.489 0.261,-0.118 0.5553,-0.177 0.883,-0.177 0.331,0 0.6229,0.058 0.8759,0.174 0.2546,0.117 0.455,0.277 0.6014,0.48 0.1464,0.202 0.2227,0.435 0.2291,0.697 z"
       fill="#fcfcfc"
       id="path74" /><path
       d="M 46.6857,120.112 V 125 h -0.7375 v -4.888 z"
       fill="#fcfcfc"
       id="path76" /><path
       d="m 51.6692,122.556 c 0,0.522 -0.0955,0.97 -0.2864,1.346 -0.1909,0.374 -0.4526,0.662 -0.7852,0.864 -0.3309,0.2 -0.7072,0.3 -1.1288,0.3 -0.4232,0 -0.8011,-0.1 -1.1336,-0.3 -0.3309,-0.202 -0.5918,-0.491 -0.7828,-0.867 -0.1909,-0.375 -0.2863,-0.823 -0.2863,-1.343 0,-0.522 0.0954,-0.97 0.2863,-1.344 0.191,-0.375 0.4519,-0.663 0.7828,-0.864 0.3325,-0.202 0.7104,-0.303 1.1336,-0.303 0.4216,0 0.7979,0.101 1.1288,0.303 0.3326,0.201 0.5943,0.489 0.7852,0.864 0.1909,0.374 0.2864,0.822 0.2864,1.344 z m -0.7303,0 c 0,-0.398 -0.0644,-0.733 -0.1933,-1.005 -0.1273,-0.273 -0.3023,-0.48 -0.525,-0.62 -0.2212,-0.142 -0.4718,-0.213 -0.7518,-0.213 -0.2816,0 -0.533,0.071 -0.7541,0.213 -0.2212,0.14 -0.3962,0.347 -0.5251,0.62 -0.1272,0.272 -0.1909,0.607 -0.1909,1.005 0,0.398 0.0637,0.733 0.1909,1.007 0.1289,0.272 0.3039,0.479 0.5251,0.62 0.2211,0.14 0.4725,0.211 0.7541,0.211 0.28,0 0.5306,-0.071 0.7518,-0.211 0.2227,-0.141 0.3977,-0.348 0.525,-0.62 0.1289,-0.274 0.1933,-0.609 0.1933,-1.007 z"
       fill="#fcfcfc"
       id="path78" /><path
       d="M 56.1975,120.112 V 125 h -0.6778 l -2.4844,-3.585 H 52.99 V 125 h -0.7374 v -4.888 h 0.6825 l 2.4868,3.589 h 0.0453 v -3.589 z"
       fill="#fcfcfc"
       id="path80" /><path
       d="m 59.6029,121.396 c -0.0254,-0.226 -0.1304,-0.401 -0.315,-0.525 -0.1846,-0.126 -0.4168,-0.189 -0.6969,-0.189 -0.2004,0 -0.3738,0.032 -0.5202,0.096 -0.1464,0.062 -0.2602,0.148 -0.3413,0.258 -0.0795,0.108 -0.1193,0.231 -0.1193,0.37 0,0.116 0.027,0.216 0.0811,0.3 0.0557,0.085 0.1281,0.155 0.2172,0.213 0.0907,0.055 0.1877,0.102 0.2912,0.14 0.1034,0.037 0.2028,0.067 0.2983,0.091 l 0.4773,0.124 c 0.1559,0.038 0.3158,0.09 0.4797,0.155 0.1638,0.066 0.3158,0.152 0.4558,0.258 0.14,0.107 0.253,0.239 0.3389,0.396 0.0875,0.158 0.1312,0.346 0.1312,0.566 0,0.277 -0.0716,0.523 -0.2148,0.737 -0.1416,0.215 -0.3476,0.385 -0.6181,0.509 -0.2688,0.124 -0.5942,0.186 -0.9761,0.186 -0.3659,0 -0.6825,-0.058 -0.9498,-0.174 -0.2673,-0.117 -0.4765,-0.281 -0.6276,-0.494 -0.1512,-0.215 -0.2347,-0.47 -0.2506,-0.764 h 0.7398 c 0.0143,0.177 0.0716,0.324 0.1718,0.441 0.1019,0.117 0.2315,0.203 0.389,0.261 0.1591,0.055 0.3333,0.083 0.5227,0.083 0.2084,0 0.3938,-0.033 0.556,-0.098 0.1639,-0.067 0.2928,-0.159 0.3867,-0.277 0.0938,-0.119 0.1408,-0.258 0.1408,-0.417 0,-0.145 -0.0414,-0.264 -0.1241,-0.356 -0.0812,-0.092 -0.1918,-0.168 -0.3318,-0.229 -0.1384,-0.06 -0.2951,-0.114 -0.4701,-0.16 l -0.5776,-0.157 c -0.3913,-0.107 -0.7016,-0.264 -0.9307,-0.47 -0.2275,-0.207 -0.3413,-0.481 -0.3413,-0.821 0,-0.282 0.0764,-0.528 0.2291,-0.738 0.1528,-0.21 0.3596,-0.373 0.6205,-0.489 0.261,-0.118 0.5553,-0.177 0.883,-0.177 0.331,0 0.6229,0.058 0.8759,0.174 0.2546,0.117 0.455,0.277 0.6014,0.48 0.1464,0.202 0.2227,0.435 0.2291,0.697 z"
       fill="#fcfcfc"
       id="path82" /></g><g
     id="g989"><path
       fill-rule="evenodd"
       clip-rule="evenodd"
       d="M42.2376 32.0512C48.0798 30.5566 51.6692 24.6815 50.3328 18.8011L51.3116 18.5787C52.7686 24.9893 48.8554 31.3943 42.4863 33.0236L38.1234 34.1397C34.234 35.1347 30.871 37.5767 28.7211 40.9673L27.8265 42.3782L26.9788 41.8407L27.8734 40.4298C30.1602 36.8232 33.7374 34.2256 37.8746 33.1673L42.2376 32.0512Z"
       fill="#56F5FF"
       id="path86" /><path
       fill-rule="evenodd"
       clip-rule="evenodd"
       d="M36.802 43.0327C37.9681 43.0327 38.9134 42.0874 38.9134 40.9213C38.9134 39.7551 37.9681 38.8098 36.802 38.8098C35.6358 38.8098 34.6905 39.7551 34.6905 40.9213C34.6905 42.0874 35.6358 43.0327 36.802 43.0327ZM36.802 44.0885C38.5512 44.0885 39.9692 42.6705 39.9692 40.9213C39.9692 39.1721 38.5512 37.7541 36.802 37.7541C35.0528 37.7541 33.6348 39.1721 33.6348 40.9213C33.6348 42.6705 35.0528 44.0885 36.802 44.0885Z"
       fill="#56F5FF"
       id="path88" /><path
       fill-rule="evenodd"
       clip-rule="evenodd"
       d="M46.1863 22.9705C45.5834 25.2205 44.1114 27.1389 42.0941 28.3035C40.0768 29.4682 37.6795 29.7838 35.4295 29.181C33.1795 28.5781 31.2612 27.1061 30.0965 25.0888L31.4004 24.336C32.3655 26.0074 33.9549 27.2271 35.8192 27.7266C37.6835 28.2262 39.6698 27.9646 41.3413 26.9996C43.0128 26.0346 44.2324 24.4451 44.7319 22.5809C45.2311 20.7178 45.0324 19.2332 44.0667 17.5607L45.3707 16.8078C46.5347 18.824 46.7895 20.7194 46.1863 22.9705Z"
       fill="#56F5FF"
       id="path90" /><path
       fill-rule="evenodd"
       clip-rule="evenodd"
       d="M41.1477 21.6208C40.9028 22.5348 40.3049 23.3141 39.4854 23.7872C38.6659 24.2603 37.6921 24.3885 36.7781 24.1436C35.8641 23.8987 35.0848 23.3008 34.6117 22.4813L35.481 21.9794C35.821 22.5683 36.381 22.9981 37.0379 23.1741C37.6947 23.3501 38.3946 23.2579 38.9835 22.9179C39.5724 22.5779 40.0022 22.0179 40.1782 21.361C40.3542 20.7042 40.262 20.0043 39.922 19.4154L40.7913 18.9135C41.2644 19.733 41.3926 20.7068 41.1477 21.6208Z"
       fill="#56F5FF"
       id="path92" /><path
       fill-rule="evenodd"
       clip-rule="evenodd"
       d="M51.457 39.8882C46.417 45.6238 39.0379 50.1984 29.9092 49.1562L30.1349 47.1832C38.4014 48.1269 45.1871 44.0132 49.963 38.5782C52.3477 35.8643 54.2052 32.8467 55.4636 30.0315C56.7298 27.1989 57.3575 24.6435 57.3575 22.8496H59.3455C59.3455 25.0275 58.6065 27.8712 57.2789 30.8412C55.9435 33.8284 53.9803 37.0167 51.457 39.8882Z"
       fill="#56F5FF"
       id="path94" /><path
       fill-rule="evenodd"
       clip-rule="evenodd"
       d="M63.8171 30.5693C60.6941 42.3707 51.2749 51.3331 39.5281 53.6804L35.3187 54.5216L35.126 53.5153L39.3353 52.6742C50.7066 50.4019 59.8248 41.7259 62.8479 30.3018L63.8171 30.5693Z"
       fill="#56F5FF"
       id="path96" /><path
       fill-rule="evenodd"
       clip-rule="evenodd"
       d="M45.2822 2.73537C64.1422 2.35662 79.8429 17.7905 79.4599 36.8225H77.258C77.6409 19.0215 62.7062 4.53441 45.1865 4.81848C27.6668 4.43973 12.9235 19.1161 13.2107 36.8225C12.9235 54.5289 27.6668 69.2053 45.1865 68.8266V70.9097C26.3265 71.2884 10.5301 55.8545 10.9131 36.8225C10.6259 17.7905 26.3265 2.35662 45.2822 2.73537Z"
       fill="#56F5FF"
       id="path98" /><path
       d="M66.423 36.8225C66.5955 25.5179 57.1631 16.2942 45.775 16.5192C34.3295 16.3505 24.8395 25.5179 25.0695 36.8225C24.8395 48.1271 34.3295 57.2946 45.775 57.1258C57.1631 57.3508 66.5955 48.1271 66.423 36.8225ZM28.1754 36.8225C28.0028 27.0927 36.0549 19.2188 45.775 19.3875C55.3801 19.2188 63.6048 27.0927 63.3747 36.8225C63.6048 46.5524 55.3801 54.4262 45.775 54.2575C36.0549 54.4262 28.0028 46.5524 28.1754 36.8225Z"
       fill="#56F5FF"
       id="path100" /></g><g
     style="clip-rule:evenodd;fill-rule:evenodd;image-rendering:optimizeQuality;shape-rendering:geometricPrecision;text-rendering:geometricPrecision"
     id="g1"
     transform="matrix(0.00432129,0,0,0.00432129,-18.959701,45.457859)"><path
       class="fil1"
       d="m 24478,9086 c 0,-158 128,-286 286,-286 158,0 286,128 286,286 0,158 -128,286 -286,286 -158,0 -286,-128 -286,-286 z M 7243,12201 h -890 -44 v -1 c -452,-10 -839,-176 -1161,-498 -332,-332 -498,-733 -498,-1205 v -23 -21 0 -1653 h 285 v 1653 0 22 22 c 0,256 63,493 190,712 126,218 298,390 517,517 219,126 456,189 711,189 h 890 v 1 h 553 255 v 285 z m 4196,-1701 V 8800 h 285 v 1700 c 0,470 -166,872 -497,1203 -332,332 -733,498 -1203,498 -471,0 -872,-166 -1204,-498 -331,-331 -497,-733 -497,-1203 V 8800 h 285 v 1700 c 0,255 63,492 189,710 126,218 298,390 517,516 218,127 454,190 710,190 255,0 491,-63 710,-190 218,-126 390,-298 516,-516 126,-218 189,-455 189,-710 z m 1633,-1203 c 331,-332 732,-497 1203,-497 470,0 871,165 1203,497 331,332 497,733 497,1203 v 1701 h -285 v -1701 c 0,-255 -63,-492 -189,-710 -126,-218 -298,-390 -516,-516 -218,-127 -455,-190 -710,-190 -255,0 -492,63 -710,190 -218,126 -391,298 -517,516 -126,218 -189,455 -189,710 v 1701 h -285 v -1701 c 0,-470 166,-871 498,-1203 z m 4251,2406 c -332,-331 -497,-733 -497,-1203 0,-470 165,-871 497,-1203 332,-332 733,-497 1203,-497 h 1701 v 284 h -1701 c -255,0 -492,63 -710,190 -218,126 -390,298 -516,516 -127,218 -190,455 -190,710 0,255 63,492 190,710 126,218 298,390 516,516 218,127 455,190 710,190 h 1701 v 285 h -1701 c -470,0 -871,-166 -1203,-498 z m 4251,-2406 c 332,-332 733,-497 1203,-497 471,0 872,165 1203,497 332,332 498,733 498,1203 0,470 -166,872 -498,1203 -331,332 -732,498 -1203,498 -470,0 -871,-166 -1203,-498 -331,-331 -497,-733 -497,-1203 0,-470 166,-871 497,-1203 z m 493,2429 c 219,127 455,190 710,190 255,0 492,-63 710,-190 218,-126 391,-298 517,-516 126,-218 189,-455 189,-710 0,-255 -63,-492 -189,-710 -126,-218 -299,-390 -517,-516 -218,-127 -455,-190 -710,-190 -255,0 -491,63 -710,190 -218,126 -390,298 -516,516 -126,218 -189,455 -189,710 0,255 63,492 189,710 126,218 298,390 516,516 z"
       id="path1" /></g></svg>
