<?xml version="1.0" encoding="UTF-8" standalone="no"?>
<svg
   _v-598ca62e=""
   class="abs tlbr ww hh editor-canvas pr"
   version="1.1"
   id="svg1514"
   sodipodi:docname="logo.svg"
   width="96"
   height="96"
   inkscape:version="1.2-rc (6364d40, 2022-05-08)"
   xmlns:inkscape="http://www.inkscape.org/namespaces/inkscape"
   xmlns:sodipodi="http://sodipodi.sourceforge.net/DTD/sodipodi-0.dtd"
   xmlns="http://www.w3.org/2000/svg"
   xmlns:svg="http://www.w3.org/2000/svg">
  <defs
     id="defs1518" />
  <sodipodi:namedview
     id="namedview1516"
     pagecolor="#ffffff"
     bordercolor="#666666"
     borderopacity="1.0"
     inkscape:showpageshadow="2"
     inkscape:pageopacity="0.0"
     inkscape:pagecheckerboard="0"
     inkscape:deskcolor="#d1d1d1"
     showgrid="false"
     inkscape:zoom="3.9928607"
     inkscape:cx="65.241445"
     inkscape:cy="54.597447"
     inkscape:window-width="1440"
     inkscape:window-height="847"
     inkscape:window-x="0"
     inkscape:window-y="25"
     inkscape:window-maximized="0"
     inkscape:current-layer="g1492" />
  <!-- grid -->
  <!-- viewport -->
  <!-- scrollbars -->
  <g
     id="g1492"
     style="display:inline"
     transform="matrix(2.2439024,0,0,2.2350524,-154.67317,-80.463517)">
    <rect
       style="display:inline;fill:#000000;stroke:#0c0c0c;stroke-width:0.447235"
       id="rect3257"
       width="42.782608"
       height="42.952015"
       x="69.042046"
       y="36.112785"
       inkscape:label="black" />
    <g
       transform="translate(70,36)"
       id="g1490"
       style="display:inline">
      <g
         id="g1464"
         style="display:inline">
        <rect
           fill="transparent"
           x="0"
           y="0.90000004"
           width="41"
           height="42"
           stroke="none"
           vector-effect="non-scaling-stroke"
           id="rect1458" />
        <g
           id="g1462">
          <path
             fill="#56f5ff"
             d="M 21,41.7 C 10.1,41.7 1.3,32.8 1.3,22 1.3,11.2 10.1,2.2 21,2.2 c 1.1,0 2.2,0.1 3.3,0.3 0,0 4,0.6 7.8,2.2 -1.4,-1.2 -7.4,-3 -7.4,-3 0,0 3.1,0.6 2.1,0.1 C 25,1.2 23,0.9 21,0.9 9.4,0.9 0,10.3 0,21.9 c 0,11.6 9.4,21 21,21 9.4,0 17.3,-6.2 20,-14.7 0,0 -4.6,13.5 -20,13.5 z"
             fill-opacity="1"
             id="path1460" />
        </g>
      </g>
      <g
         id="g1472"
         style="display:inline">
        <rect
           fill="transparent"
           x="1"
           y="18.200001"
           width="30.9"
           height="23.370369"
           stroke="none"
           vector-effect="non-scaling-stroke"
           id="rect1466" />
        <g
           id="g1470">
          <path
             fill="#56f5ff"
             d="m 1.1,24.7 c 0,0 -0.1,-2.9 1.1,-6.5 -1.3,4.4 0.4,9 0.4,9 0,0 -0.3,-3 0,-3.8 -0.1,2.9 1.2,6.4 1.2,6.4 0,0 -0.2,-1.4 0.5,-0.1 0.7,1.3 1.4,3.1 4.6,6.4 0.4,0.4 -0.2,-1.3 0,-1.2 0.2,0.1 0.7,1.2 0.7,1.2 0,0 -0.1,-0.4 0.3,-0.5 0.4,-0.1 1.5,1.1 1.3,1.3 C 11,37.2 10.5,37 10.1,37.1 9.7,37.2 13,39.5 16,40.9 15.5,41.1 8.9,38.2 8.9,38.2 L 3.6,33 1,26.7 Z m 17.7,15.6 c 8.1,2.9 13.1,-3.4 13.1,-3.4 0,0 -1.9,3.2 -6.2,4.3 -4.2,1.2 -6.9,-0.9 -6.9,-0.9 z"
             fill-opacity="0.7"
             id="path1468" />
        </g>
      </g>
      <g
         id="g1480"
         style="display:inline"
         inkscape:label="TopRight">
        <rect
           fill="transparent"
           x="18.200001"
           y="0.00072956085"
           width="22.100002"
           height="16.199272"
           stroke="none"
           vector-effect="non-scaling-stroke"
           id="rect1474" />
        <g
           id="g1478">
          <path
             fill="#56f5ff"
             d="M 18.2,0.6 C 26,-0.9 30.3,2.2 30.7,1.9 31,1.6 26.5,-1.2 18.2,0.6 Z m 15.7,5.8 c 5,5.2 6.4,9.8 6.4,9.8 0,0 -1,-5.4 -6.4,-9.8 z"
             fill-opacity="0.5"
             id="path1476" />
        </g>
      </g>
      <g
         id="g1488"
         style="display:inline"
         inkscape:label="Center">
        <rect
           fill="transparent"
           transform="matrix(0.21748052,0,0,0.21748052,10.214256,9.6486064)"
           x="3.6142695"
           y="6.2170811"
           width="91.959641"
           height="91.9571"
           stroke="none"
           vector-effect="non-scaling-stroke"
           id="rect1482" />
        <g
           transform="matrix(0.21748052,0,0,0.21748052,10.214256,9.6486064)"
           id="g1486">
          <path
             fill="#56f5ff"
             d="m 12.485,73.634 h -0.026 a 0.913,0.913 0 0 1 -0.887,-0.938 c 0.164,-5.842 3.945,-10.8 7.086,-13.93 3.79,-3.775 8.762,-7.02 13.652,-8.9 2.784,-1.057 5.693,-1.97 8.506,-2.837 6.223,-1.928 12.66,-3.92 17.834,-7.85 6.975,-5.293 10.964,-13.09 10.943,-21.45 a 0.896,0.896 0 0 1 0.913,-0.895 0.896,0.896 0 0 1 0.913,0.89 c 0.022,8.945 -4.23,17.285 -11.666,22.92 -5.43,4.114 -12.022,6.151 -18.396,8.126 -2.784,0.862 -5.659,1.753 -8.397,2.802 -4.651,1.8 -9.397,4.903 -13.013,8.497 -2.906,2.896 -6.402,7.446 -6.55,12.687 a 0.913,0.913 0 0 1 -0.912,0.878 z m 5.582,8.48 a 1.825,1.825 0 0 1 -1.424,-2.966 c 5.074,-6.336 14.484,-9.451 22.788,-12.199 1.73,-0.573 3.364,-1.113 4.886,-1.66 13.937,-5.013 25.767,-15.516 36.203,-24.8 1.716,-1.526 3.492,-3.104 4.963,-4.838 a 1.8261402,1.8261402 0 1 1 2.784,2.364 c -1.643,1.93 -3.51,3.594 -5.32,5.203 C 72.262,52.71 60.154,63.479 45.553,68.724 a 215.451,215.451 0 0 1 -4.974,1.692 C 32.755,73.004 23.891,75.938 19.496,81.43 a 1.825,1.825 0 0 1 -1.43,0.685 z m 14.46,5.435 c -1.394,0 -2.81,-0.019 -4.25,-0.044 a 0.913,0.913 0 1 1 0.034,-1.825 c 11.029,0.197 20.783,-0.073 28.452,-5.425 1.424,-0.995 2.796,-2.19 4.123,-3.35 2.762,-2.411 5.619,-4.905 9.271,-5.909 2.032,-0.558 4.547,-0.78 7.209,-1.013 4.069,-0.365 8.274,-0.73 10.82,-2.33 a 0.91319508,0.91319508 0 0 1 0.974,1.545 c -2.92,1.838 -7.35,2.227 -11.633,2.603 -2.578,0.227 -5.011,0.44 -6.884,0.955 -3.251,0.894 -5.828,3.143 -8.556,5.523 -1.363,1.19 -2.772,2.42 -4.278,3.469 -7.1,4.95 -15.662,5.8 -25.282,5.8 z M 9.207,48.153 a 0.913,0.913 0 0 1 -0.163,-1.81 c 3.391,-0.621 6.898,-1.264 10.127,-2.532 11.582,-4.564 18.843,-18.159 16.187,-30.318 a 0.913,0.913 0 0 1 1.784,-0.389 c 1.376,6.305 0.338,13.143 -2.92,19.258 -3.258,6.115 -8.37,10.784 -14.376,13.143 -3.393,1.336 -6.989,1.993 -10.466,2.63 a 0.913,0.913 0 0 1 -0.174,0.018 z m 3.004,-13.781 h -0.389 a 0.91309255,0.91309255 0 0 1 0.026,-1.826 h 0.027 a 12.1,12.1 0 0 0 12.33,-13.803 0.913,0.913 0 0 1 1.807,-0.257 14.085,14.085 0 0 1 -3.4,11.244 14.096,14.096 0 0 1 -10.401,4.642 z m 17.9,31.864 a 4.293,4.293 0 1 1 4.293,-4.294 4.299,4.299 0 0 1 -4.294,4.294 z m 0,-6.754 A 2.468,2.468 0 1 0 32.578,61.95 2.47,2.47 0 0 0 30.11,59.474 Z M 49.564,98.174 A 45.948,45.948 0 0 1 17.072,19.736 45.95,45.95 0 1 1 82.055,84.719 45.647,45.647 0 0 1 49.564,98.174 Z m 0,-86.42 A 40.472,40.472 0 0 0 20.945,80.844 40.472317,40.472317 0 0 0 78.182,23.608 40.208,40.208 0 0 0 49.564,11.754 Z"
             fill-opacity="1"
             id="path1484" />
        </g>
      </g>
    </g>
  </g>
</svg>
